<svg width="1292" height="890" viewBox="0 0 1292 890" fill="none" xmlns="http://www.w3.org/2000/svg">
<path d="M204.351 316.669C184.343 184.82 294.458 67.2536 442.459 116.167C599.259 167.976 729.026 4.65022 799.693 42.8512C870.288 81.0512 993.67 230.633 1129.47 346.92C1206.23 412.608 1209.36 468.191 1161.68 543.986C1127.91 597.683 1033.05 686.144 799.693 686.144C632.677 686.144 606.792 740.33 482.417 831.351C321.502 949.052 235.996 860.995 293.892 669.521C348.31 489.432 234.789 517.845 204.351 316.669Z" fill="#3F3D56"/>
<path d="M644.794 458.677C644.794 458.677 524.817 447.493 496.65 452.883C468.483 458.273 542.981 626.301 542.981 626.301L580.088 614.848L549.508 501.998C549.508 501.998 625.496 533.124 702.547 524.568C702.547 524.568 701.98 475.453 644.794 458.677Z" fill="#37B37F"/>
<path d="M890.068 716.851L921.215 720.691C921.215 720.691 929.517 756.062 914.759 780.182C900.001 804.301 882.831 815.889 863.036 820.606L842.674 790.153L890.068 716.851Z" fill="#283444"/>
<path d="M489.91 508.87C527.017 456.79 529.003 415.491 529.074 410.977C534.609 414.884 537.305 417.175 537.305 417.175L893.616 695.696C909.296 801.337 813.371 817.035 813.371 817.035C813.371 817.035 543.123 682.221 399.094 565.329C404.557 564.992 452.874 560.815 489.91 508.87Z" fill="white"/>
<path d="M876.517 682.288L893.616 695.628C909.296 801.269 813.371 816.967 813.371 816.967C813.371 816.967 805.638 813.127 792.015 806.12" stroke="#F1F2F7" stroke-width="3"/>
<path d="M244.99 324.065C409.311 335.182 502.184 391.977 529.074 410.977C528.932 415.491 526.946 456.79 489.91 508.87C452.874 560.882 404.557 564.992 399.023 565.329C398.952 565.261 398.81 565.194 398.739 565.059C254.711 448.099 244.99 324.065 244.99 324.065Z" fill="#FE8163"/>
<path d="M992.946 684.916L989.682 674.945L840.545 548.889L699.78 544.173L725.961 566.002L992.946 684.916Z" fill="#FEAC00"/>
<path d="M576.895 632.634L581.932 657.36L564.266 662.413L551.424 635.666L576.895 632.634Z" fill="#FFDFD7"/>
<path d="M837.352 885.486L834.089 889.394L646 809.759L579.023 687.678L611.093 703.376L837.352 885.486Z" fill="#FEAC00"/>
<path d="M992.946 684.916L841.467 560.545L726.032 566.002L876.73 682.086C876.73 682.019 916.036 670.094 992.946 684.916Z" fill="#FFC933"/>
<path d="M789.248 802.415C789.248 802.415 809.469 853.484 837.352 885.486L654.443 806.659L611.093 703.376L789.248 802.415Z" fill="#FFC933"/>
<path d="M884.109 824.513L879.639 829.297L721.207 728.709L647.49 667.129L671.258 643.953L884.109 824.513Z" fill="#FEAC00"/>
<path d="M831.251 747.775C831.251 747.775 866.797 789.21 884.108 824.513L727.38 722.51L671.187 644.02L831.251 747.775Z" fill="#FFC933"/>
<path d="M702.547 524.568C702.547 524.568 693.962 536.83 556.532 528.61C556.532 528.61 578.243 602.317 585.338 637.822L536.95 647.928C536.95 647.928 494.522 525.915 494.663 509.341C494.806 492.768 507.86 486.367 542.697 477.743C577.533 469.12 643.02 459.081 643.02 459.081C643.02 459.081 686.229 469.052 695.452 486.839C704.605 504.693 702.547 524.568 702.547 524.568Z" fill="#283444"/>
<path d="M770.305 346.231L771.511 325.345L760.372 325.413L749.942 342.458L770.305 346.231Z" fill="#FFDFD7"/>
<path d="M771.298 329.455C771.298 329.455 790.17 323.863 798.968 302.169C807.837 280.475 786.481 267.135 770.446 270.908C754.412 274.681 741.428 308.367 740.293 312.544C739.158 316.789 731.495 335.855 771.298 329.455Z" fill="white"/>
<path d="M759.591 277.847C759.591 277.847 758.314 265.922 778.819 263.294C799.252 260.667 806.986 292.871 831.676 300.552C856.296 308.232 879.993 306.75 899.221 323.796C918.448 340.774 920.648 359.301 920.009 375.134C919.441 390.967 904.187 378.233 898.724 392.988C893.261 407.743 877.652 399.995 874.601 405.856C871.55 411.718 854.806 439.341 844.518 421.689C834.231 404.037 834.727 386.587 812.307 377.155C795.989 370.35 777.754 346.905 771.369 329.455C768.956 322.852 770.588 316.115 771.227 312.881C773.568 301.562 775.413 293.612 772.504 287.414C770.659 283.709 768.744 280.273 759.591 277.847Z" fill="#283444"/>
<path d="M669.201 296.375L659.764 224.757L674.096 220.512L691.692 283.641L721.704 359.099L696.304 383.556L669.201 296.375Z" fill="white"/>
<path d="M729.65 354.45C729.65 354.45 708.862 316.991 693.537 283.574C693.537 283.574 686.725 291.524 667.285 296.846L691.905 388.07L729.65 354.45Z" fill="#FFB3DA"/>
<path d="M581.932 657.36L591.581 674.743L533.97 695.965C533.97 695.965 530.564 686.466 564.266 662.413L581.932 657.36Z" fill="#FFC933"/>
<path d="M534.041 437.993C534.041 437.993 520.702 429.033 513.607 426.742C506.512 424.451 518.361 435.972 518.361 435.972C518.361 435.972 502.823 435.972 493.883 437.656C484.943 439.341 495.373 458.273 502.61 459.081C509.847 459.822 538.582 451.737 538.582 451.737C538.582 451.737 544.116 442.036 534.041 437.993Z" fill="white"/>
<path d="M674.096 220.513C674.096 220.513 682.327 210.676 683.036 207.442C683.675 204.208 679.701 206.297 675.515 210.07C675.515 210.07 679.489 192.148 677.786 189.79C676.083 187.432 661.751 184.468 659.197 196.865C657.707 204.074 659.694 224.757 659.694 224.757C659.694 224.757 670.762 229.069 674.096 220.513Z" fill="white"/>
<path d="M600.095 466.29L643.02 459.148" stroke="#52CB96" stroke-width="3" stroke-linecap="round" stroke-linejoin="round"/>
<path d="M632.165 444.663L538.582 451.805L534.041 437.993L623.509 420.274L686.725 387.126L706.946 409.09L632.165 444.663Z" fill="white"/>
<path d="M771.369 358.695C771.369 358.695 730.289 492.902 703.115 526.387C703.115 526.387 697.155 498.427 641.034 457.666C641.034 457.666 682.327 385.375 726.103 354.922C769.808 324.537 774.278 349.465 771.369 358.695Z" fill="#FFB3DA"/>
<path d="M698.006 379.176C698.006 379.176 644.084 409.696 621.593 418.253C621.593 418.253 628.404 437.387 629.398 449.245L664.234 436.511L692.401 397.906L698.006 379.176Z" fill="#FFB3DA"/>
<path d="M734.617 349.33C734.617 349.33 713.899 360.312 698.006 379.109C698.006 379.109 664.092 398.243 647.206 406.395C630.249 414.547 621.593 418.185 621.593 418.185C621.593 418.185 625.992 428.426 629.398 449.177L683.107 429.302" stroke="#ED85C3" stroke-width="3" stroke-linecap="round" stroke-linejoin="round"/>
<path d="M395.405 208.385C381.002 186.287 352.551 174.362 327.789 173.823C291.676 173.014 284.155 197.606 261.664 191.475C234.561 184.064 239.74 146.671 206.678 136.498C195.042 132.927 176.169 131.378 162.121 140.002C141.404 152.735 139.488 161.696 129.555 169.646C127.143 171.6 122.318 175.103 115.72 177.461C101.53 182.447 87.8362 178.27 80.4574 175.979C62.2942 170.252 62.7199 163.447 49.6651 161.291C38.9517 159.54 25.4712 161.965 15.8929 169.646C-1.34794 183.457 0.283907 209.126 1.06436 220.445C1.20626 222.736 1.41911 224.622 1.63196 225.902H403.99C401.648 218.02 397.036 210.878 395.405 208.385Z" fill="#A1BBF6"/>
<path d="M1285.47 503.682C1282.71 495.799 1271.57 465.212 1238.93 447.493C1197.14 424.788 1152.16 440.486 1149.46 441.497C1098.45 460.159 1088.73 510.824 1057.79 507.522C1039.77 505.636 1039.84 488.052 1015.79 482.662C990.25 476.935 957.684 489.399 944.416 512.238C938.314 522.749 936.611 534.943 937.605 545.723H1291.5C1292.43 531.507 1289.73 516.011 1285.47 503.682Z" fill="#A1BBF6"/>
</svg>
