<svg width="1096" height="575" viewBox="0 0 1096 575" fill="none" xmlns="http://www.w3.org/2000/svg">
<g clip-path="url(#clip0)">
<path opacity="0.1" d="M548 574.74C850.652 574.74 1096 570.773 1096 565.88C1096 560.987 850.652 557.02 548 557.02C245.348 557.02 0 560.987 0 565.88C0 570.773 245.348 574.74 548 574.74Z" fill="#6C63FF"/>
<path d="M779.73 338.14C834.936 338.14 879.69 293.386 879.69 238.18C879.69 182.974 834.936 138.22 779.73 138.22C724.524 138.22 679.77 182.974 679.77 238.18C679.77 293.386 724.524 338.14 779.73 338.14Z" fill="#3F3D56"/>
<path d="M822.64 263.96C819.16 260.48 810.79 255.23 806.64 253.27C801.85 250.97 800.09 251.01 796.7 253.46C793.88 255.46 792.05 257.39 788.81 256.68C785.57 255.97 779.15 251.13 772.94 244.94C766.73 238.75 761.91 232.37 761.22 229.08C760.53 225.79 762.43 224 764.45 221.18C766.89 217.79 766.96 216.03 764.64 211.24C762.64 207.09 757.45 198.74 753.94 195.24C750.43 191.74 749.67 192.51 747.75 193.24C745.774 194.068 743.876 195.072 742.08 196.24C738.6 198.57 736.65 200.51 735.28 203.43C733.91 206.35 732.36 211.77 740.33 225.96C746.209 236.815 753.656 246.745 762.43 255.43V255.43C771.144 264.224 781.108 271.684 792 277.57C806.18 285.57 811.61 283.98 814.53 282.62C817.45 281.26 819.39 279.33 821.71 275.82C822.88 274.025 823.884 272.127 824.71 270.15C825.37 268.23 826.15 267.45 822.64 263.96Z" fill="white"/>
<path opacity="0.1" d="M779.73 138.23C759.948 138.22 740.607 144.078 724.154 155.062C707.702 166.047 694.877 181.664 687.302 199.939C679.727 218.213 677.742 238.324 681.599 257.727C685.456 277.13 694.981 294.952 708.969 308.941C722.958 322.929 740.78 332.454 760.183 336.311C779.586 340.168 799.697 338.183 817.971 330.608C836.246 323.033 851.863 310.208 862.848 293.756C873.832 277.303 879.69 257.962 879.68 238.18C879.667 211.676 869.132 186.261 850.391 167.519C831.649 148.778 806.234 138.243 779.73 138.23V138.23ZM779.73 324.85C762.588 324.85 745.831 319.767 731.579 310.243C717.326 300.72 706.217 287.184 699.657 271.347C693.097 255.51 691.381 238.084 694.725 221.272C698.069 204.459 706.324 189.016 718.445 176.895C730.566 164.774 746.009 156.52 762.821 153.175C779.634 149.831 797.06 151.548 812.897 158.107C828.734 164.667 842.27 175.776 851.793 190.029C861.317 204.282 866.4 221.038 866.4 238.18C866.4 249.562 864.158 260.832 859.803 271.347C855.447 281.862 849.063 291.417 841.015 299.465C832.967 307.513 823.412 313.897 812.897 318.253C802.382 322.608 791.112 324.85 779.73 324.85Z" fill="black"/>
<path d="M550.08 489.97C605.287 489.97 650.04 445.216 650.04 390.01C650.04 334.804 605.287 290.05 550.08 290.05C494.874 290.05 450.12 334.804 450.12 390.01C450.12 445.216 494.874 489.97 550.08 489.97Z" fill="#3F3D56"/>
<path d="M606.93 359.81L577 390.26C576.947 390.31 576.906 390.371 576.877 390.438C576.848 390.505 576.834 390.577 576.834 390.65C576.834 390.723 576.848 390.795 576.877 390.862C576.906 390.929 576.947 390.99 577 391.04L598 413.37C598.502 413.876 598.844 414.519 598.982 415.219C599.12 415.919 599.049 416.644 598.776 417.303C598.504 417.962 598.043 418.526 597.451 418.924C596.859 419.322 596.163 419.536 595.45 419.54C594.49 419.538 593.57 419.157 592.89 418.48L572 396.23C571.893 396.125 571.75 396.066 571.6 396.066C571.45 396.066 571.307 396.125 571.2 396.23L566.11 401.37C564.026 403.501 561.537 405.194 558.789 406.35C556.042 407.506 553.091 408.101 550.11 408.1C547.073 408.086 544.069 407.467 541.274 406.279C538.478 405.09 535.948 403.357 533.83 401.18L528.94 396.18C528.833 396.075 528.69 396.016 528.54 396.016C528.39 396.016 528.247 396.075 528.14 396.18L507.3 418.38C506.965 418.716 506.566 418.982 506.128 419.164C505.69 419.346 505.22 419.44 504.745 419.44C504.27 419.44 503.8 419.346 503.362 419.164C502.924 418.982 502.525 418.716 502.19 418.38C501.853 418.045 501.585 417.647 501.403 417.209C501.22 416.77 501.126 416.3 501.126 415.825C501.126 415.35 501.22 414.88 501.403 414.441C501.585 414.003 501.853 413.605 502.19 413.27L523.11 390.99C523.203 390.881 523.254 390.743 523.254 390.6C523.254 390.457 523.203 390.319 523.11 390.21L493.18 359.76C493.103 359.683 493.005 359.63 492.898 359.609C492.791 359.587 492.68 359.598 492.579 359.64C492.478 359.682 492.392 359.752 492.332 359.843C492.272 359.934 492.24 360.041 492.24 360.15V421.08C492.248 423.435 493.187 425.692 494.853 427.357C496.518 429.023 498.775 429.962 501.13 429.97H599C601.355 429.962 603.612 429.023 605.277 427.357C606.943 425.692 607.882 423.435 607.89 421.08V360.2C607.895 360.087 607.865 359.974 607.803 359.879C607.742 359.783 607.653 359.709 607.548 359.666C607.442 359.624 607.327 359.615 607.216 359.64C607.105 359.666 607.006 359.725 606.93 359.81V359.81Z" fill="white"/>
<path d="M550.08 400.87C552.109 400.89 554.121 400.502 555.997 399.729C557.873 398.956 559.574 397.814 561 396.37L604.59 352C603.043 350.718 601.099 350.012 599.09 350H501.15C499.14 350.007 497.195 350.714 495.65 352L539.25 396.37C540.663 397.805 542.349 398.943 544.21 399.716C546.07 400.489 548.066 400.881 550.08 400.87Z" fill="white"/>
<path opacity="0.1" d="M548.82 290.06C529.038 290.05 509.697 295.908 493.244 306.892C476.792 317.877 463.967 333.494 456.392 351.769C448.817 370.043 446.832 390.154 450.689 409.557C454.546 428.96 464.071 446.783 478.059 460.771C492.048 474.759 509.871 484.284 529.273 488.141C548.676 491.998 568.787 490.013 587.062 482.438C605.336 474.863 620.954 462.038 631.938 445.586C642.922 429.133 648.78 409.792 648.77 390.01C648.757 363.506 638.222 338.091 619.481 319.349C600.739 300.608 575.324 290.073 548.82 290.06ZM548.82 476.68C531.678 476.68 514.922 471.597 500.669 462.074C486.416 452.55 475.307 439.014 468.747 423.177C462.188 407.34 460.471 389.914 463.815 373.102C467.16 356.289 475.414 340.846 487.535 328.725C499.656 316.604 515.099 308.35 531.912 305.005C548.724 301.661 566.15 303.378 581.987 309.937C597.824 316.497 611.36 327.606 620.884 341.859C630.407 356.112 635.49 372.868 635.49 390.01C635.49 412.996 626.359 435.041 610.105 451.295C593.851 467.549 571.806 476.68 548.82 476.68Z" fill="black"/>
<path d="M312.85 415.32C368.056 415.32 412.81 370.566 412.81 315.36C412.81 260.154 368.056 215.4 312.85 215.4C257.644 215.4 212.89 260.154 212.89 315.36C212.89 370.566 257.644 415.32 312.85 415.32Z" fill="#2F2E41"/>
<path d="M312.85 267.53L273 359.47L276.72 363.19L312.86 347.25L349 363.19L352.72 359.47L312.85 267.53Z" fill="white"/>
<path opacity="0.1" d="M312.55 215C292.671 214.99 273.236 220.847 256.702 231.829C240.168 242.811 227.279 258.425 219.665 276.697C212.05 294.969 210.053 315.077 213.925 334.478C217.797 353.88 227.365 371.703 241.418 385.693C255.471 399.683 273.379 409.212 292.875 413.075C312.371 416.937 332.581 414.96 350.948 407.393C369.315 399.825 385.014 387.008 396.059 370.562C407.105 354.116 413 334.78 413 315C413 288.487 402.419 263.059 383.582 244.307C364.745 225.555 339.196 215.013 312.55 215V215ZM312.55 401.62C295.321 401.62 278.478 396.536 264.153 387.01C249.828 377.484 238.664 363.945 232.072 348.106C225.481 332.266 223.759 314.837 227.124 298.023C230.489 281.209 238.79 265.766 250.977 253.647C263.163 241.528 278.688 233.278 295.588 229.939C312.488 226.601 330.003 228.324 345.918 234.892C361.833 241.459 375.433 252.576 384.998 266.835C394.563 281.095 399.664 297.856 399.654 315C399.651 337.985 390.473 360.027 374.138 376.279C357.803 392.53 335.65 401.66 312.55 401.66V401.62Z" fill="#4389AC"/>
<path d="M788.93 441.25C788.023 439.037 787.093 436.83 786.14 434.63C785.355 432.483 784.201 430.49 782.73 428.74C782.171 428.11 781.491 427.6 780.73 427.24C779.893 426.931 779.012 426.756 778.12 426.72C776.76 426.549 775.387 426.512 774.02 426.61C773.49 426.45 772.89 426.24 772.3 426C775.259 425.223 777.89 423.515 779.806 421.13C781.721 418.745 782.82 415.807 782.94 412.75C782.94 412.55 782.94 412.34 782.94 412.14C782.948 410.269 782.587 408.414 781.878 406.682C781.17 404.95 780.126 403.375 778.809 402.046C777.491 400.717 775.925 399.661 774.199 398.938C772.473 398.214 770.621 397.838 768.75 397.83C766.116 397.825 763.534 398.563 761.3 399.96C758.351 399.291 755.262 399.642 752.537 400.955C749.813 402.268 747.614 404.466 746.3 407.19C744.644 408.775 743.335 410.686 742.457 412.804C741.579 414.921 741.151 417.198 741.2 419.49C741.2 419.7 741.2 419.92 741.2 420.12C741.46 427.89 746.48 434.12 752.82 434.75C752.142 435.055 751.521 435.47 750.98 435.98C749.04 437.85 748.72 440.82 748.51 443.52L748.36 445.52L745 446.72C744.893 446.758 744.799 446.825 744.727 446.913C744.656 447.001 744.61 447.107 744.594 447.219C744.579 447.332 744.594 447.446 744.639 447.551C744.685 447.655 744.757 447.744 744.85 447.81L748.06 450.1C748.06 450.29 748.06 450.48 748.06 450.67C748.06 450.86 748.06 451.1 748.12 451.32C747.572 451.803 747.147 452.41 746.88 453.09C746.567 454.14 746.469 455.242 746.59 456.33L746.71 459.12C746.694 461.22 746.981 463.311 747.56 465.33C747.98 466.57 749.8 469.56 751.11 469.58C749.9 475.08 749.58 486.68 749.58 486.68C749.43 486.83 749.85 486.97 750.58 487.09C751.3 492.61 753.65 508.09 757.82 514.9C758.476 517.12 759.001 519.378 759.39 521.66C759.39 521.66 760.58 536.37 762.15 540.74C763.49 544.46 764.55 553.64 764.84 556.3C764.568 556.37 764.321 556.513 764.125 556.714C763.929 556.915 763.793 557.166 763.73 557.44C762.94 559.82 757.82 563.44 757.82 563.44C756.251 564.224 754.769 565.173 753.4 566.27C751.79 567.72 751.85 569.03 759 568.21C772.8 566.62 775.16 562.21 775.16 562.21C775.16 562.21 774.94 561.47 774.61 560.51C774.189 559.016 773.581 557.582 772.8 556.24C772.6 556.05 772.4 556.37 772.16 556.87C771.119 550.489 770.803 544.012 771.22 537.56C771.22 537.56 771.61 530.8 769.64 526.03C769.202 523.532 769.202 520.978 769.64 518.48C770.43 515.3 766.49 499.79 766.49 499.79L764.23 488.37C764.538 488.76 764.754 489.215 764.86 489.7L764.92 489.93L764.98 490.26C765.003 490.377 765.058 490.484 765.14 490.57C766.68 496.97 770.9 514.7 770.9 517.3C770.9 520.48 774.84 528.43 774.84 528.43C774.84 528.43 776.41 541.55 779.17 546.71C781.27 550.64 781.32 556.4 781.22 558.94C781.22 558.94 780.75 562.21 779.96 563C779.332 563.781 778.829 564.655 778.47 565.59L778.38 565.78C778.38 565.78 777.2 568.17 777.99 568.57C780.995 569.749 784.247 570.158 787.45 569.76C787.45 569.76 789.03 567.76 789.03 566.98C788.997 566.504 788.937 566.03 788.85 565.56C788.56 563.68 788.02 560.72 788.01 560.69C788.34 559.41 787.01 555.85 787.01 555.85L786.61 544.72C787.342 537.184 786.4 529.579 783.85 522.45C783.85 522.45 781.85 515.3 782.28 513.31C782.71 511.32 781.49 490.25 781.49 490.25L781.37 489.95C781.263 488.46 781.304 486.962 781.49 485.48C781.88 480.71 780.31 470.77 779.91 470.38C779.584 469.312 779.396 468.206 779.35 467.09C779.44 466.26 779.71 463.83 780.08 460.81C783.968 460.677 787.847 460.343 791.7 459.81C792.072 459.81 792.43 459.667 792.7 459.41C792.858 459.17 792.938 458.887 792.93 458.6C793.39 452.61 791.2 446.79 788.93 441.25ZM781 453.86C781.41 451.01 781.85 448.25 782.29 446.2L782.35 446.38C783.107 448.441 783.742 450.544 784.25 452.68C783.2 453.16 782.113 453.555 781 453.86Z" fill="url(#paint0_linear)"/>
<path d="M750.37 486.05C750.37 486.05 752.73 507.28 757.84 515.53C758.497 517.723 759.021 519.954 759.41 522.21C759.41 522.21 760.59 536.75 762.16 541.07C763.73 545.39 764.91 557.19 764.91 557.19C764.91 557.19 770.41 563.47 772.38 558.37C771.143 551.632 770.747 544.766 771.2 537.93C771.2 537.93 771.59 531.25 769.63 526.53C769.192 524.063 769.192 521.537 769.63 519.07C770.41 515.92 766.48 500.6 766.48 500.6L763.34 485.27L750.37 486.05Z" fill="#BE6F72"/>
<path d="M775.13 562.3C775.13 562.3 772.77 566.62 759.02 568.19C751.88 569 751.83 567.71 753.44 566.27C754.805 565.185 756.279 564.247 757.84 563.47C757.84 563.47 762.95 559.94 763.73 557.58C764.51 555.22 767.27 557.19 767.27 557.19C771.2 563.08 771.99 555.61 772.77 556.4C773.553 557.719 774.161 559.134 774.58 560.61C774.91 561.56 775.13 562.3 775.13 562.3Z" fill="#FF6F61"/>
<path opacity="0.1" d="M775.13 562.3C775.13 562.3 772.77 566.62 759.02 568.19C751.88 569 751.83 567.71 753.44 566.27C754.56 566.98 756.82 567.27 761.37 565.44C767.92 562.76 772.67 561.21 774.58 560.61C774.91 561.56 775.13 562.3 775.13 562.3Z" fill="black"/>
<path opacity="0.1" d="M771.2 537.93C771.2 537.93 771.59 531.25 769.63 526.53C769.192 524.063 769.192 521.537 769.63 519.07C770.41 515.92 766.48 500.6 766.48 500.6L763.34 485.27L760.62 485.43L763.73 500.6C763.73 500.6 767.66 515.92 766.88 519.07C766.442 521.537 766.442 524.063 766.88 526.53C768.88 531.25 768.45 537.93 768.45 537.93C767.997 544.766 768.393 551.632 769.63 558.37C769.417 559.01 769.021 559.573 768.49 559.99C769.95 560.65 771.49 560.62 772.38 558.37C771.143 551.632 770.747 544.766 771.2 537.93V537.93Z" fill="black"/>
<path d="M768.64 399.79C766.018 399.785 763.447 400.516 761.22 401.9C758.279 401.221 755.196 401.558 752.472 402.857C749.748 404.155 747.544 406.338 746.22 409.05C744.57 410.61 743.266 412.498 742.389 414.592C741.512 416.686 741.084 418.94 741.13 421.21C741.13 429.57 746.76 436.34 753.7 436.34C758.7 436.34 763.08 432.78 765.09 427.63C766.245 427.936 767.435 428.091 768.63 428.09C772.383 428.09 775.982 426.599 778.635 423.946C781.289 421.292 782.78 417.693 782.78 413.94C782.78 410.187 781.289 406.588 778.635 403.934C775.982 401.281 772.383 399.79 768.63 399.79H768.64Z" fill="#3F3D56"/>
<path d="M780.24 488.02L781.42 491.16C781.42 491.16 782.6 511.99 782.2 513.96C781.8 515.93 783.78 522.96 783.78 522.96C786.321 529.998 787.261 537.513 786.53 544.96L786.92 555.96C786.92 555.96 788.49 560.28 787.71 561.07C786.93 561.86 781 560.37 781 560.37C781 560.37 781.79 552.12 779 547.01C776.21 541.9 774.68 528.93 774.68 528.93C774.68 528.93 770.75 521.07 770.75 517.93C770.75 514.79 764.46 489.24 764.46 489.24L780.24 488.02Z" fill="#BE6F72"/>
<path d="M749.58 487.63C749.58 487.63 749.98 473.48 751.58 469.16C752.394 467.141 752.981 465.038 753.33 462.89C753.33 462.89 777.12 467.19 779.09 465.62C779.09 465.62 779.48 471.12 779.88 471.51C780.28 471.9 781.88 481.73 781.45 486.45C781.02 491.17 781.45 491.16 781.45 491.16C781.45 491.16 765.33 493.52 764.94 491.16C764.55 488.8 763.37 488.81 763.37 488.81C763.37 488.81 748.8 488.37 749.58 487.63Z" fill="#69F0AE"/>
<g opacity="0.1">
<path opacity="0.1" d="M762.55 487.63C762.55 487.63 752.61 487.36 749.61 486.82C749.61 487.33 749.61 487.63 749.61 487.63C748.83 488.41 763.37 488.81 763.37 488.81C763.568 488.828 763.756 488.905 763.91 489.03C763.38 487.63 762.55 487.63 762.55 487.63Z" fill="black"/>
<path opacity="0.1" d="M779.85 471.51C779.45 471.12 779.06 465.62 779.06 465.62C778.856 465.747 778.628 465.828 778.39 465.86C778.53 467.52 778.8 470.07 779.06 470.33C779.32 470.59 781.06 480.55 780.63 485.27C780.2 489.99 780.63 489.98 780.63 489.98C780.63 489.98 767.88 491.85 764.79 490.6C764.79 490.77 764.88 490.96 764.91 491.16C765.3 493.52 781.42 491.16 781.42 491.16C781.42 491.16 781.02 491.16 781.42 486.45C781.82 481.74 780.24 471.91 779.85 471.51Z" fill="black"/>
</g>
<path d="M766.9 424.55C767.238 425.307 767.753 425.972 768.4 426.49C768.817 426.8 769.299 427.008 769.81 427.1C768.93 427.61 767.97 427.99 767.09 428.5C765.706 429.43 764.371 430.432 763.09 431.5C761.78 432.553 760.177 433.175 758.5 433.28C759.088 432.487 759.458 431.552 759.57 430.571C759.682 429.59 759.534 428.596 759.14 427.69C758.78 427.096 758.542 426.437 758.44 425.75C758.44 424.62 759.44 423.75 760.37 423.15C761.12 422.64 761.89 422.15 762.67 421.66C763.28 421.28 764.2 420.48 764.97 420.51C765.74 420.54 765.83 421.22 765.97 421.92C766.168 422.832 766.481 423.716 766.9 424.55V424.55Z" fill="#BE6F72"/>
<path opacity="0.1" d="M766.9 424.55C767.238 425.307 767.753 425.972 768.4 426.49C768.817 426.8 769.299 427.008 769.81 427.1C768.93 427.61 767.97 427.99 767.09 428.5C765.706 429.43 764.371 430.432 763.09 431.5C761.78 432.553 760.177 433.175 758.5 433.28C759.088 432.487 759.458 431.552 759.57 430.571C759.682 429.59 759.534 428.596 759.14 427.69C758.78 427.096 758.542 426.437 758.44 425.75C758.44 424.62 759.44 423.75 760.37 423.15C761.12 422.64 761.89 422.15 762.67 421.66C763.28 421.28 764.2 420.48 764.97 420.51C765.74 420.54 765.83 421.22 765.97 421.92C766.168 422.832 766.481 423.716 766.9 424.55V424.55Z" fill="black"/>
<path d="M776.11 447.74C781.103 447.74 785.15 443.693 785.15 438.7C785.15 433.707 781.103 429.66 776.11 429.66C771.117 429.66 767.07 433.707 767.07 438.7C767.07 443.693 771.117 447.74 776.11 447.74Z" fill="#BE6F72"/>
<path d="M788.88 567.01C788.88 567.8 787.31 569.76 787.31 569.76C784.117 570.152 780.878 569.747 777.88 568.58C777.09 568.19 778.27 565.83 778.27 565.83L778.36 565.64C778.72 564.714 779.223 563.851 779.85 563.08C780.63 562.3 781.1 559.08 781.1 559.08C783.54 555.08 787.87 560.81 787.87 560.81C787.87 560.81 788.42 563.81 788.71 565.63C788.81 566.28 788.88 566.81 788.88 567.01Z" fill="#FF6F61"/>
<path opacity="0.1" d="M788.88 567.01C788.88 567.8 787.31 569.76 787.31 569.76C784.117 570.152 780.878 569.747 777.88 568.58C777.09 568.19 778.27 565.83 778.27 565.83L778.36 565.64C781.038 566.884 783.969 567.486 786.92 567.4L788.71 565.61C788.81 566.28 788.88 566.81 788.88 567.01Z" fill="black"/>
<path d="M758.03 428.67C762.912 428.67 766.87 424.712 766.87 419.83C766.87 414.948 762.912 410.99 758.03 410.99C753.148 410.99 749.19 414.948 749.19 419.83C749.19 424.712 753.148 428.67 758.03 428.67Z" fill="#BE6F72"/>
<path d="M750.9 437.51C748.96 439.36 748.64 442.29 748.44 444.96L748.14 448.87C748.032 449.923 748.008 450.983 748.07 452.04C748.07 452.69 748.23 453.35 748.29 454.04C748.35 454.73 748.37 455.6 748.38 456.39V462.17C748.285 463.363 748.506 464.56 749.02 465.64C749.294 466.163 749.755 466.563 750.31 466.763C750.865 466.963 751.475 466.948 752.02 466.72C752.641 466.241 753.079 465.563 753.26 464.8C754.235 462.455 754.907 459.995 755.26 457.48C755.34 456.61 755.35 455.74 755.43 454.87C755.51 454 755.66 453.09 755.79 452.21C756.35 448.53 756.6 444.81 756.85 441.1C756.92 440 757.91 435.67 756.47 435.19C755.77 434.96 754.32 435.68 753.65 435.92C752.636 436.259 751.7 436.8 750.9 437.51V437.51Z" fill="#BE6F72"/>
<path opacity="0.1" d="M750.9 437.51C748.96 439.36 748.64 442.29 748.44 444.96L748.14 448.87C748.032 449.923 748.008 450.983 748.07 452.04C748.07 452.69 748.23 453.35 748.29 454.04C748.35 454.73 748.37 455.6 748.38 456.39V462.17C748.285 463.363 748.506 464.56 749.02 465.64C749.294 466.163 749.755 466.563 750.31 466.763C750.865 466.963 751.475 466.948 752.02 466.72C752.641 466.241 753.079 465.563 753.26 464.8C754.235 462.455 754.907 459.995 755.26 457.48C755.34 456.61 755.35 455.74 755.43 454.87C755.51 454 755.66 453.09 755.79 452.21C756.35 448.53 756.6 444.81 756.85 441.1C756.92 440 757.91 435.67 756.47 435.19C755.77 434.96 754.32 435.68 753.65 435.92C752.636 436.259 751.7 436.8 750.9 437.51V437.51Z" fill="black"/>
<path d="M769.23 425.53C769.23 425.53 762.55 430.64 758.62 431.82C758.62 431.82 756.29 434.48 755.89 435.12C755.49 435.76 754.69 442.82 753.89 444.4C753.09 445.98 751.14 449.51 753.89 453.04C753.89 453.04 754.67 456.58 754.28 457.76C753.89 458.94 752.46 463.26 753.76 463.46C755.06 463.66 759 466.4 762.53 465.62C766.06 464.84 779.24 468.62 779.24 468.62C779.24 468.62 781.42 448.37 783 444.79L779.46 443.61C779.46 443.61 769.64 437.72 775.53 428.68C775.52 428.68 770 427.5 769.23 425.53Z" fill="#E5C5D5"/>
<path d="M744.84 449.2L752.96 454.95C753.063 455.026 753.187 455.066 753.315 455.066C753.443 455.066 753.567 455.026 753.67 454.95L755.87 453.3C755.938 453.242 755.992 453.17 756.029 453.089C756.066 453.007 756.086 452.919 756.086 452.83C756.086 452.741 756.066 452.653 756.029 452.571C755.992 452.49 755.938 452.418 755.87 452.36L749.62 446.81C749.539 446.736 749.439 446.686 749.332 446.665C749.224 446.644 749.113 446.652 749.01 446.69L745 448.13C744.895 448.166 744.801 448.231 744.73 448.317C744.658 448.402 744.612 448.506 744.596 448.616C744.579 448.727 744.593 448.839 744.636 448.942C744.679 449.045 744.75 449.134 744.84 449.2V449.2Z" fill="#3F3D56"/>
<path d="M747.57 466.52C746.996 464.528 746.71 462.463 746.72 460.39L746.6 457.62C746.479 456.545 746.578 455.456 746.89 454.42C747.198 453.709 747.66 453.076 748.243 452.566C748.826 452.056 749.515 451.681 750.26 451.47C751.753 451.056 753.313 450.943 754.85 451.14C755.057 451.141 755.261 451.196 755.44 451.3C755.597 451.445 755.708 451.633 755.76 451.84C755.987 452.283 756.121 452.769 756.152 453.266C756.183 453.764 756.111 454.262 755.94 454.73C755.708 455.111 755.394 455.436 755.02 455.68C753.93 456.46 752.66 456.98 751.63 457.83C751.421 457.972 751.26 458.174 751.17 458.41C751.12 458.617 751.12 458.833 751.17 459.04C751.298 459.59 751.472 460.129 751.69 460.65C751.778 460.912 751.933 461.146 752.14 461.33C752.33 461.49 752.58 461.55 752.78 461.7C753.21 462.05 754.11 462.51 754.06 463.06C753.91 465.06 752.71 467.3 752.24 469.28C751.34 473.15 748.15 468.21 747.57 466.52Z" fill="#BE6F72"/>
<g opacity="0.1">
<path opacity="0.1" d="M760.2 465.62H759.98C760.829 465.785 761.701 465.785 762.55 465.62H762.8C761.938 465.494 761.062 465.494 760.2 465.62Z" fill="black"/>
<path opacity="0.1" d="M780.83 444.2C779.42 447.37 777.34 464.54 776.97 467.95C778.35 468.31 779.26 468.57 779.26 468.57C779.26 468.57 781.42 448.37 783 444.79L780.83 444.2Z" fill="black"/>
</g>
<path d="M776.42 438.98C776.493 439.375 776.646 439.751 776.867 440.086C777.089 440.421 777.375 440.708 777.71 440.93C778.545 441.63 779.311 442.406 780 443.25C780.988 444.64 781.754 446.175 782.27 447.8C783.02 449.835 783.651 451.912 784.16 454.02C779.16 456.34 773.48 456.23 768.16 457.76C765.869 458.364 763.792 459.593 762.16 461.31C761.346 462.173 760.728 463.201 760.346 464.324C759.965 465.448 759.83 466.64 759.95 467.82C759.958 467.958 759.999 468.092 760.07 468.21C760.157 468.308 760.265 468.384 760.387 468.433C760.508 468.482 760.64 468.501 760.77 468.49C762.099 468.488 763.39 468.045 764.44 467.23C765.478 466.419 766.42 465.493 767.25 464.47C767.765 463.799 768.458 463.287 769.25 462.99C772.14 462.11 775.25 462.16 778.25 462.11C782.737 462.022 787.215 461.668 791.66 461.05C791.822 461.069 791.987 461.052 792.141 460.998C792.295 460.945 792.436 460.857 792.551 460.741C792.667 460.626 792.754 460.485 792.808 460.331C792.861 460.177 792.879 460.012 792.86 459.85C793.3 453.95 791.11 448.19 788.86 442.72C787.96 440.527 787.033 438.343 786.08 436.17C785.295 434.046 784.144 432.077 782.68 430.35C782.124 429.722 781.443 429.218 780.68 428.87C779.819 428.56 778.914 428.391 778 428.37C776.545 428.174 775.071 428.147 773.61 428.29C773.377 429.026 773.236 429.789 773.19 430.56C773.27 433.26 774.45 435.79 775.61 438.23C775.76 438.6 776.19 438.62 776.42 438.98Z" fill="#BE6F72"/>
<path opacity="0.1" d="M760.41 444.04C759.733 445.198 759.388 446.519 759.41 447.86C759.412 448.39 759.497 448.916 759.66 449.42C759.933 450.127 760.361 450.764 760.914 451.283C761.466 451.802 762.127 452.191 762.85 452.42" stroke="black" stroke-miterlimit="10"/>
<path d="M765.5 411.19C765.007 411.188 764.518 411.266 764.05 411.42C762.74 409.42 759.66 408.04 756.05 408.04C751.27 408.04 747.4 410.51 747.4 413.55C747.4 416.59 751.27 419.05 756.05 419.05C757.84 419.069 759.612 418.694 761.24 417.95C761.606 418.708 762.169 419.353 762.869 419.82C763.569 420.286 764.382 420.557 765.222 420.603C766.062 420.649 766.899 420.469 767.646 420.082C768.393 419.696 769.023 419.115 769.47 418.403C769.918 417.69 770.166 416.87 770.189 416.029C770.212 415.188 770.009 414.356 769.602 413.62C769.194 412.884 768.597 412.27 767.872 411.843C767.147 411.415 766.321 411.19 765.48 411.19H765.5Z" fill="#3F3D56"/>
<path opacity="0.1" d="M765.89 419.44C765.003 419.44 764.135 419.19 763.384 418.717C762.634 418.245 762.033 417.57 761.65 416.77C760.022 417.514 758.25 417.889 756.46 417.87C751.69 417.87 747.82 415.41 747.82 412.37C747.805 412.187 747.805 412.003 747.82 411.82C747.535 412.353 747.384 412.946 747.38 413.55C747.38 416.55 751.25 419.05 756.03 419.05C757.82 419.069 759.592 418.694 761.22 417.95C761.651 418.843 762.352 419.577 763.224 420.048C764.097 420.519 765.095 420.703 766.078 420.573C767.061 420.444 767.978 420.007 768.698 419.326C769.418 418.645 769.905 417.754 770.09 416.78C769.709 417.572 769.114 418.242 768.371 418.712C767.629 419.183 766.769 419.435 765.89 419.44V419.44Z" fill="black"/>
<path opacity="0.1" d="M746.23 411.37C747.554 408.658 749.758 406.475 752.482 405.177C755.206 403.878 758.29 403.541 761.23 404.22C763.288 402.95 765.636 402.228 768.052 402.124C770.468 402.021 772.87 402.538 775.029 403.628C777.188 404.717 779.031 406.342 780.383 408.347C781.735 410.352 782.55 412.67 782.75 415.08C782.75 414.69 782.75 414.3 782.75 413.9C782.745 411.385 782.068 408.917 780.791 406.75C779.514 404.584 777.682 402.797 775.484 401.574C773.287 400.351 770.802 399.737 768.288 399.794C765.774 399.851 763.32 400.578 761.18 401.9C758.24 401.221 755.156 401.558 752.432 402.857C749.708 404.155 747.504 406.338 746.18 409.05C744.531 410.61 743.226 412.498 742.349 414.592C741.473 416.686 741.044 418.94 741.09 421.21C741.09 421.61 741.09 422 741.09 422.39C741.286 418.183 743.133 414.224 746.23 411.37Z" fill="#F0E9CB"/>
</g>
<defs>
<linearGradient id="paint0_linear" x1="767.07" y1="569.95" x2="767.07" y2="397.83" gradientUnits="userSpaceOnUse">
<stop stop-color="#808080" stop-opacity="0.25"/>
<stop offset="0.54" stop-color="#808080" stop-opacity="0.12"/>
<stop offset="1" stop-color="#808080" stop-opacity="0.1"/>
</linearGradient>
<clipPath id="clip0">
<rect width="1096" height="574.74" fill="white"/>
</clipPath>
</defs>
</svg>
