<svg width="399" height="330" viewBox="0 0 399 330" fill="none" xmlns="http://www.w3.org/2000/svg">
<path d="M279.76 73.72H121.99C97.9822 73.72 78.52 93.1822 78.52 117.19V225.02C78.52 249.028 97.9822 268.49 121.99 268.49H279.76C303.768 268.49 323.23 249.028 323.23 225.02V117.19C323.23 93.1822 303.768 73.72 279.76 73.72Z" fill="url(#paint0_linear)"/>
<path d="M115.22 270.1C115.226 270.941 115.543 271.749 116.11 272.37C116.703 272.756 117.403 272.945 118.11 272.91C129.65 273.577 141.2 273.693 152.76 273.26C154.056 273.327 155.338 272.977 156.42 272.26C157.144 271.565 157.675 270.693 157.96 269.73C159.13 266.65 160.02 263.47 160.62 260.23C160.89 258.8 161.05 257.17 160.14 256.04C159.23 254.91 157.49 254.71 155.98 254.65C144.54 254.223 133.097 254.067 121.65 254.18C118.87 254.18 114.41 254.4 113.65 257.63C112.89 260.86 114.81 266.75 115.22 270.1Z" fill="#3F3D56"/>
<path d="M235.12 268.57C236.827 269.626 238.767 270.248 240.77 270.38C252.052 271.952 263.465 272.358 274.83 271.59C276.18 271.5 277.68 271.31 278.52 270.25C279.52 268.97 279.04 267.1 278.45 265.57C277.12 262.11 275.23 258.44 271.79 257.08C270.081 256.523 268.285 256.282 266.49 256.37C258.49 256.27 249.31 254.64 241.4 255.47C235.22 256.12 229.16 263.46 235.12 268.57Z" fill="#3F3D56"/>
<path d="M233.78 71.07C234.382 71.5097 235.131 71.6996 235.87 71.6L252.56 71.4401C259.21 71.3701 265.92 71.3 272.43 69.93C273.64 69.68 275.02 69.21 275.38 68.03C275.527 67.289 275.429 66.5203 275.1 65.84C273.406 61.2838 270.921 57.0623 267.76 53.37C267.447 52.8983 267.006 52.5249 266.489 52.2931C265.973 52.0613 265.401 51.9805 264.84 52.06C256.64 52.06 249.39 56.46 241.97 59.33C238.89 60.5201 228.84 66.28 233.78 71.07Z" fill="#3F3D56"/>
<path d="M116.48 70.8501C116.255 71.4428 116.255 72.0974 116.48 72.6901C116.9 73.4801 117.96 73.6901 118.85 73.6901C134.283 74.6901 149.733 75.0001 165.2 74.6201C166.152 74.6856 167.103 74.4774 167.94 74.0201C169.14 73.2201 169.42 71.6001 169.49 70.1601C169.749 64.9887 168.718 59.8341 166.49 55.1601C165.975 53.9055 165.178 52.7865 164.16 51.8901C162.45 50.5401 160.11 50.4101 157.93 50.3301L140.58 49.7501C137.16 49.6301 132.29 48.5001 128.92 49.5201C120.86 52.0101 119.63 64.5001 116.48 70.8501Z" fill="#3F3D56"/>
<path d="M119.53 23.57C117.831 25.4106 116.595 27.6301 115.925 30.0441C115.256 32.4581 115.172 34.997 115.68 37.45C116.437 40.5497 117.913 43.4274 119.99 45.85C124.99 51.93 132.29 55.79 139.99 57.43C147.69 59.07 155.66 58.59 163.36 57.06C167.66 56.2 171.99 54.97 175.59 52.46C177.431 51.3123 178.838 49.585 179.59 47.55C180.28 45.33 179.73 42.91 178.97 40.71C176.52 33.62 171.61 27.14 164.77 24.08C161.36 22.6981 157.764 21.8254 154.1 21.49C147.55 20.65 140.22 21.49 133.89 19.77C128.52 18.28 123.54 19.31 119.53 23.57Z" fill="#65617D"/>
<path d="M274.69 66.96H116.92C92.9122 66.96 73.45 86.4222 73.45 110.43V218.26C73.45 242.268 92.9122 261.73 116.92 261.73H274.69C298.698 261.73 318.16 242.268 318.16 218.26V110.43C318.16 86.4222 298.698 66.96 274.69 66.96Z" fill="#65617D"/>
<path d="M274.69 66.96H116.92C92.9122 66.96 73.45 86.4222 73.45 110.43V218.26C73.45 242.268 92.9122 261.73 116.92 261.73H274.69C298.698 261.73 318.16 242.268 318.16 218.26V110.43C318.16 86.4222 298.698 66.96 274.69 66.96Z" fill="url(#paint1_linear)"/>
<path d="M238.25 90.6901L227.64 145.31L267.59 153.43C267.59 153.43 277.27 100.05 277.27 99.1201C277.27 98.1901 238.25 90.6901 238.25 90.6901Z" fill="white"/>
<path d="M269.06 77.85C267.769 77.6188 266.449 77.5918 265.15 77.77C264.35 77.9957 263.573 78.2971 262.83 78.67C258.62 80.49 253.83 80.45 249.29 80.37C249.62 78.92 251.07 78.06 252.37 77.37C256.04 75.37 259.94 72.56 260.57 68.37C260.122 68.0067 259.604 67.7394 259.048 67.5846C258.493 67.4297 257.911 67.3907 257.34 67.47H236.43C235.793 67.4046 235.152 67.5447 234.6 67.87C234.175 68.2391 233.892 68.7448 233.8 69.3C233.425 71.5506 233.831 73.8618 234.95 75.85C235.95 77.85 237.19 79.75 237.95 81.85C238.71 83.95 239 86.11 240.22 87.9C241.32 89.5 243.13 90.69 243.62 92.56C242.22 93.92 239.88 93.09 238.24 92.04C234.532 89.6221 231.398 86.4206 229.061 82.6611C226.723 78.9016 225.238 74.6754 224.71 70.28C224.61 69.9028 224.607 69.5067 224.699 69.1277C224.792 68.7487 224.978 68.3988 225.24 68.11C225.589 67.8906 225.988 67.7633 226.4 67.74C236.368 66.3874 246.411 65.6626 256.47 65.57C263.967 65.3731 271.466 65.9056 278.86 67.16C280.86 67.54 287.86 68.16 286.96 70.64C286.16 72.97 281.51 75.25 279.45 76.16C276.187 77.5993 272.611 78.181 269.06 77.85Z" fill="url(#paint2_linear)"/>
<path d="M238.79 258.21C239.378 257.992 240.004 257.896 240.63 257.93C241.81 258.022 242.992 257.79 244.05 257.26C244.526 256.847 245.076 256.529 245.67 256.32C246.002 256.271 246.338 256.271 246.67 256.32C247.926 256.447 249.191 256.204 250.31 255.62C250.84 255.35 251.39 254.88 251.31 254.29C251.275 254.043 251.171 253.81 251.01 253.62C250.07 252.4 248.3 252.26 246.76 252.23L240.98 252.1C239.475 251.977 237.96 252.112 236.5 252.5C234.933 253.012 233.608 254.083 232.78 255.508C231.952 256.934 231.678 258.615 232.01 260.23C232.038 260.476 232.143 260.707 232.31 260.89C232.494 261.037 232.716 261.127 232.95 261.15C233.95 261.36 235.95 262.15 236.75 261.2C237.55 260.25 237.43 258.85 238.79 258.21Z" fill="url(#paint3_linear)"/>
<path d="M262.47 246.7C261.589 245.8 260.495 245.136 259.29 244.77C257.944 244.525 256.566 244.525 255.22 244.77C250.047 245.329 244.818 245.11 239.71 244.12C239.333 244.095 238.978 243.935 238.71 243.67C238.52 243.344 238.456 242.96 238.53 242.59C238.8 239.44 239.92 235.8 242.93 234.82C243.813 234.583 244.727 234.486 245.64 234.53C251.51 234.53 257.69 235.02 262.64 238.23C267.07 241.12 269.9 245.83 272.59 250.38C274.81 254.14 277.12 258.29 276.49 262.62C273.49 262.47 269.43 262.95 266.59 262C266.99 259.13 267.37 256.57 266.59 253.68C265.81 250.79 263.72 249.2 262.47 246.7Z" fill="url(#paint4_linear)"/>
<path d="M152.73 255.56C151.98 255.11 151.1 254.69 150.73 253.88C150 252.14 152.29 250.32 151.82 248.49C150.455 247.992 149.12 247.418 147.82 246.77C147.462 246.622 147.144 246.392 146.89 246.1C146.31 245.34 146.72 244.28 147.06 243.39C147.4 242.5 147.55 241.29 146.74 240.79C146.263 240.574 145.725 240.532 145.22 240.67L136.77 241.96C135.829 242.042 134.913 242.304 134.07 242.73C133.653 242.95 133.305 243.282 133.065 243.688C132.825 244.094 132.702 244.558 132.71 245.03L134.76 247.12C133.65 248.99 130.95 249.24 129.5 250.87C128.34 252.19 128.24 254.1 128.04 255.87C127.84 257.64 127.33 259.58 125.77 260.4C124.946 260.761 124.049 260.925 123.15 260.88L114.61 261.17C113.947 261.258 113.273 261.129 112.69 260.8C111.55 259.97 112.1 258.17 112.77 256.92C113.733 255.288 114.559 253.579 115.24 251.81C117.39 245.62 115.44 238.5 117.9 232.43C118.263 231.396 118.891 230.476 119.72 229.76C121.082 228.913 122.667 228.495 124.27 228.56C131.07 228.173 137.877 227.877 144.69 227.67C147.692 227.506 150.701 227.587 153.69 227.91C156.82 228.33 160.12 229.44 161.86 232.07C162.423 232.989 162.873 233.973 163.2 235L166.14 243L169.31 251.67C170.18 254.03 171 256.81 169.63 258.92C168.4 260.82 165.86 261.35 163.63 261.37C161.87 261.37 158.07 262.09 156.98 261.09C156.36 260.51 155.98 258.85 155.45 258.09C154.716 257.079 153.792 256.219 152.73 255.56Z" fill="url(#paint5_linear)"/>
<path d="M164.23 71.4801L169.69 84.7401C170.867 87.2617 171.692 89.9335 172.14 92.6801C172.47 95.5201 171.99 98.3901 172.19 101.23C172.52 105.8 174.58 110.04 176.6 114.15C179.11 113.07 180.06 110.03 180.42 107.32C181.25 101.04 180.49 94.6601 179.55 88.4001C179.115 84.4358 178.139 80.5497 176.65 76.8501C175.717 74.8865 174.623 73.0034 173.38 71.2201C172.535 69.7639 171.373 68.5165 169.98 67.5701C168.41 66.6601 164.55 65.8401 162.81 66.5701C160.72 67.5501 163.66 70.1101 164.23 71.4801Z" fill="url(#paint6_linear)"/>
<path d="M122.69 83.1301C122.669 82.0282 122.392 80.9463 121.88 79.9701C121.272 78.5228 120.741 77.044 120.29 75.5401C120.198 75.2724 120.144 74.9929 120.13 74.7101C120.152 74.3085 120.24 73.9132 120.39 73.5401C120.832 72.1135 120.887 70.595 120.55 69.1401C120.501 68.7411 120.358 68.3596 120.132 68.0273C119.906 67.6951 119.603 67.4217 119.25 67.2301C118.928 67.1215 118.59 67.0707 118.25 67.0801L114.18 66.9501C113.992 66.9263 113.801 66.9688 113.64 67.0701C113.508 67.2179 113.439 67.4121 113.45 67.6101C113.195 70.9433 113.279 74.2938 113.7 77.6101C114.09 80.6101 115.7 83.3101 117.37 85.8601C119.29 88.8501 122.49 85.8501 122.69 83.1301Z" fill="url(#paint7_linear)"/>
<path d="M169.9 213.12H116.89V240.77H169.9V213.12Z" fill="#65617D"/>
<path d="M169.9 213.12H116.89V240.77H169.9V213.12Z" fill="url(#paint8_linear)"/>
<path d="M149.16 231.26H136.58V238.86H149.16V231.26Z" fill="url(#paint9_linear)"/>
<path d="M169.9 213.12L116.66 212.88L112.31 197.2H176.45L169.9 213.12Z" fill="#65617D"/>
<path d="M169.9 213.12L116.66 212.88L112.31 197.2H176.45L169.9 213.12Z" fill="#65617D"/>
<path d="M167.37 211.99L119.03 211.8L115.55 199.26H172.61L167.37 211.99Z" fill="url(#paint10_linear)"/>
<path d="M292.38 62.13C291.678 64.4525 290.282 66.5044 288.38 68.01C285.481 70.4254 282.273 72.4432 278.84 74.01C275.56 75.61 271.98 77.1 268.39 76.53C264.8 75.96 261.39 72.53 262.32 68.95C263.14 65.72 266.74 64.21 269.76 62.79C271.763 61.8507 273.685 60.7504 275.51 59.5C276.348 59.0305 277.04 58.3383 277.51 57.5C278.16 56.03 277.45 54.33 276.66 52.93C274.913 49.806 272.743 46.9388 270.21 44.41C268.74 46.88 269.12 50.07 267.92 52.69C266.25 56.34 261.92 58.01 257.92 58.26C255.84 58.39 253.63 58.26 251.84 59.34C251.082 59.8595 250.363 60.4344 249.69 61.06C247.435 62.7934 244.631 63.6565 241.792 63.4912C238.953 63.3259 236.268 62.1433 234.23 60.16C232.23 62.8 230.11 65.75 230.23 69.07C230.38 70.5236 230.769 71.9426 231.38 73.27C232.4 75.7825 233.572 78.2304 234.89 80.6C236.065 82.4209 236.98 84.3966 237.61 86.47C237.904 87.5061 237.931 88.5999 237.688 89.6492C237.445 90.6985 236.94 91.669 236.22 92.47C235.861 92.8411 235.403 93.1014 234.9 93.22C233.81 93.42 232.79 92.66 231.9 91.95C228.429 89.2445 225.239 86.1957 222.38 82.85C219.514 79.4548 217.743 75.2712 217.3 70.85C217.12 68.07 217.66 65.29 217.67 62.51C217.67 59.37 217.04 56.24 217.23 53.11C217.53 48.11 220.01 43.37 223.35 39.61C226.193 36.5505 229.432 33.8837 232.98 31.68C233.37 31.43 234.39 30.68 235.87 29.68C234.63 31.79 234.93 34.68 235.81 37.56C236.243 39.0514 236.979 40.4375 237.971 41.6316C238.964 42.8258 240.193 43.8022 241.58 44.5C242.153 44.7162 242.69 45.0198 243.17 45.4C243.53 45.72 243.79 46.16 244.17 46.48C245.42 47.48 247.59 46.98 248.65 48.22C249.02 48.64 249.21 49.22 249.71 49.51C250.21 49.8 250.94 49.51 251.56 49.51C252.574 49.6257 253.559 49.9202 254.47 50.38C255.659 50.6799 256.907 50.6523 258.081 50.3001C259.255 49.948 260.312 49.2845 261.14 48.38C262.772 46.5413 263.901 44.3129 264.42 41.91C265.42 38.17 265.7 33.98 263.78 30.62C262.383 28.1241 260.169 26.1854 257.51 25.13C249.33 22.07 240.43 26.76 235.88 29.68C236.352 28.8946 237.007 28.2357 237.79 27.76C241.292 25.7912 244.976 24.1637 248.79 22.9C255.3 20.65 261.26 22.56 268.1 23.38C270.018 23.5229 271.886 24.0572 273.59 24.95C275.264 26.0687 276.701 27.5061 277.82 29.18C283.479 36.7496 288.003 45.1042 291.25 53.98C292.2 56.61 293.05 59.43 292.38 62.13Z" fill="#65617D"/>
<path d="M126.04 303.85C130.14 305.69 134.83 305.46 139.32 305.14C143.57 304.84 148.05 304.4 151.53 301.93C156.69 298.27 158.15 291.19 157.74 284.93C157.293 277.424 154.678 270.208 150.21 264.16C149.515 263.123 148.6 262.252 147.53 261.61C146.129 261.02 144.605 260.78 143.09 260.91C137.963 260.95 132.84 261.153 127.72 261.52C126.595 261.506 125.487 261.793 124.51 262.35C123.619 263.086 122.967 264.071 122.64 265.18C121.225 268.862 120.546 272.786 120.64 276.73C120.78 282.42 122.16 287.73 120.39 293.25C118.97 297.69 121.78 301.93 126.04 303.85Z" fill="#65617D"/>
<path d="M126.04 303.85C130.14 305.69 134.83 305.46 139.32 305.14C143.57 304.84 148.05 304.4 151.53 301.93C156.69 298.27 158.15 291.19 157.74 284.93C157.293 277.424 154.678 270.208 150.21 264.16C149.515 263.123 148.6 262.252 147.53 261.61C146.129 261.02 144.605 260.78 143.09 260.91C137.963 260.95 132.84 261.153 127.72 261.52C126.595 261.506 125.487 261.793 124.51 262.35C123.619 263.086 122.967 264.071 122.64 265.18C121.225 268.862 120.546 272.786 120.64 276.73C120.78 282.42 122.16 287.73 120.39 293.25C118.97 297.69 121.78 301.93 126.04 303.85Z" fill="url(#paint11_linear)"/>
<path d="M142.6 44.52C145.237 45.3064 148.065 45.1576 150.605 44.0989C153.145 43.0402 155.242 41.1366 156.54 38.71C157.339 37.2146 157.687 35.5192 157.54 33.83C157.281 32.2895 156.611 30.8474 155.601 29.6558C154.591 28.4643 153.277 27.5675 151.8 27.06C148.81 26.0996 145.587 26.1524 142.63 27.21C140.48 27.9 137.05 29.04 135.43 30.68C134.25 31.88 134.59 33.92 134.89 35.48C135.28 37.5264 136.196 39.4361 137.548 41.0212C138.9 42.6062 140.641 43.812 142.6 44.52Z" fill="url(#paint12_linear)"/>
<path d="M130.3 27.95C130.205 29.4087 130.392 30.872 130.85 32.26C131.388 33.4615 132.18 34.5326 133.17 35.4C135.66 37.75 139.24 39.47 142.49 38.4C143.561 37.9858 144.555 37.3942 145.43 36.65C145.58 36.4955 145.777 36.3937 145.99 36.36C146.211 36.3691 146.424 36.4459 146.6 36.58C148.42 37.6315 150.518 38.0994 152.612 37.9206C154.706 37.7418 156.695 36.9248 158.31 35.58C159.43 34.577 160.333 33.3549 160.963 31.9892C161.592 30.6236 161.935 29.1434 161.97 27.64C162.012 24.6117 161.021 21.6594 159.16 19.27C158.184 18.026 157.089 16.8805 155.89 15.85C154.556 14.613 153.075 13.545 151.48 12.67C149.577 11.7143 147.483 11.1992 145.354 11.1628C143.225 11.1265 141.115 11.5698 139.18 12.46C136.303 13.8294 133.925 16.0635 132.38 18.85C131.674 19.9555 131.071 21.1238 130.58 22.34C130.05 23.98 130.32 26.2 130.3 27.95Z" fill="#3F3D56"/>
<path d="M142.3 12.5C142.876 13.0422 143.63 13.3552 144.42 13.38C145.624 13.5316 146.837 13.5984 148.05 13.58C148.441 13.591 148.831 13.53 149.2 13.4C149.796 13.0554 150.271 12.535 150.56 11.91C150.704 11.699 150.802 11.4608 150.85 11.21C150.872 10.9627 150.827 10.7139 150.72 10.49C150.477 10.0277 150.127 9.63036 149.699 9.33111C149.271 9.03187 148.778 8.83948 148.26 8.77005C147.227 8.64687 146.181 8.68398 145.16 8.88005C144.33 8.99005 142.4 8.67005 141.86 9.33005C141.32 9.99005 141.86 11.97 142.3 12.5Z" fill="#65617D"/>
<path d="M141.75 9.48003C142.792 9.73987 143.868 9.84101 144.94 9.78003H147.52C148.161 9.80876 148.803 9.73449 149.42 9.56003C150.236 9.25619 150.936 8.70345 151.42 7.98003C152.169 6.95854 152.638 5.75881 152.78 4.50003C152.854 4.05049 152.799 3.58919 152.62 3.17003C152.427 2.85521 152.172 2.58301 151.87 2.37003C150.887 1.45858 149.74 0.742505 148.49 0.260028C146.804 -0.150419 145.031 -0.024572 143.42 0.620029C141.881 1.02275 140.507 1.89693 139.49 3.12003C139.13 3.66635 138.902 4.28865 138.824 4.93802C138.745 5.58739 138.818 6.24613 139.037 6.86248C139.256 7.47882 139.615 8.03598 140.086 8.49017C140.557 8.94435 141.126 9.28318 141.75 9.48003Z" fill="#3F3D56"/>
<path d="M121.01 48.55C119.01 51.1 116.68 53.55 115.93 56.74C115.598 58.5136 115.531 60.3266 115.73 62.12L116.49 74.24C116.619 75.0247 116.507 75.8299 116.17 76.55C115.54 77.55 114.17 77.81 112.97 77.93C111.158 78.2517 109.297 78.1524 107.53 77.64C103.81 76.25 102.47 71.76 101.76 67.85C100.76 62.11 99.9501 56.12 101.55 50.51C103.01 45.35 106.33 40.95 109.55 36.68C112.18 33.24 114.92 29.68 118.7 27.58C119.256 27.2325 119.887 27.0233 120.54 26.97C121.24 27.0131 121.914 27.256 122.48 27.67C131.29 33.24 125.81 42.42 121.01 48.55Z" fill="#65617D"/>
<path d="M179.18 52.25L182.1 72.52C182.67 76.52 183.24 80.41 183.68 84.37C184.067 87.9833 184.353 91.6033 184.54 95.23C184.62 96.79 184.59 98.57 183.42 99.6C182.06 100.79 179.8 100.24 178.56 98.93C177.431 97.5063 176.669 95.8271 176.34 94.04C174.036 85.7757 171.038 77.7205 167.38 69.96C165.62 66.22 163.69 62.5 162.83 58.46C161.44 52 163.58 45.57 169.73 42.46C177.09 38.85 178.38 46.53 179.18 52.25Z" fill="#65617D"/>
<path d="M185.38 95.9001C184.721 94.9903 183.784 94.3197 182.71 93.99C181.632 93.8365 180.536 94.1131 179.66 94.7601C178.58 95.4839 177.699 96.4657 177.094 97.6164C176.49 98.7672 176.183 100.05 176.2 101.35C176.2 102.75 176.66 104.11 176.82 105.5C177.03 107.27 176.82 109.09 177.32 110.81C177.741 112.172 178.568 113.373 179.691 114.252C180.813 115.131 182.177 115.647 183.6 115.73C184.18 115.778 184.762 115.674 185.29 115.43C186.6 114.75 186.91 113.04 186.94 111.56C186.989 109.444 186.791 107.33 186.35 105.26C187.431 105.901 188.615 106.348 189.85 106.58C189.97 102.48 187.99 98.9501 185.38 95.9001Z" fill="url(#paint13_linear)"/>
<path d="M114.07 86.2101C114.963 86.9651 116.039 87.4721 117.19 87.6801C117.767 87.7752 118.359 87.6839 118.881 87.4196C119.402 87.1552 119.826 86.7316 120.09 86.2101C120.256 85.6975 120.324 85.158 120.29 84.6201V80.1901C120.435 78.6033 120.086 77.0105 119.29 75.6301C118.813 75.038 118.2 74.569 117.504 74.2628C116.808 73.9565 116.049 73.8218 115.29 73.8701C112.98 73.9901 108.29 76.2101 108.13 78.8701C107.97 81.5301 112.19 84.8501 114.07 86.2101Z" fill="url(#paint14_linear)"/>
<path d="M246.5 54.97C249.02 54.91 251.37 53.75 253.61 52.6C254.58 52.1657 255.472 51.5745 256.25 50.85C256.839 50.1742 257.264 49.3711 257.492 48.5037C257.719 47.6363 257.742 46.728 257.56 45.85C257.172 44.078 256.279 42.4561 254.99 41.18C253.134 39.1665 250.645 37.8484 247.936 37.4446C245.228 37.0408 242.463 37.5755 240.1 38.96C236.1 41.24 236.78 48.03 239.17 51.25C240.015 52.4011 241.118 53.3375 242.392 53.9837C243.665 54.6299 245.072 54.9677 246.5 54.97Z" fill="url(#paint15_linear)"/>
<path d="M264.43 41.94C263.911 44.3429 262.782 46.5713 261.15 48.41C260.322 49.3145 259.265 49.978 258.091 50.3301C256.917 50.6823 255.669 50.7099 254.48 50.41C253.569 49.9502 252.584 49.6557 251.57 49.54C250.95 49.54 250.27 49.83 249.72 49.54C249.17 49.25 249.03 48.67 248.66 48.25C247.6 47.01 245.43 47.56 244.18 46.51C243.81 46.19 243.55 45.75 243.18 45.43C242.7 45.0498 242.163 44.7462 241.59 44.53C240.203 43.8322 238.974 42.8558 237.981 41.6616C236.989 40.4675 236.253 39.0814 235.82 37.59C234.94 34.67 234.64 31.82 235.88 29.71C240.43 26.79 249.33 22.1 257.51 25.16C260.169 26.2154 262.383 28.1541 263.78 30.65C265.71 34.01 265.43 38.2 264.43 41.94Z" fill="#3F3D56"/>
<path d="M241.54 91.59C243.4 93.59 245.39 95.84 245.21 98.53C245.077 99.2656 245.044 100.016 245.11 100.76C245.27 101.49 246.03 102.17 246.72 101.88C247.41 101.59 247.61 100.46 248.38 100.34C248.99 100.24 249.47 100.95 249.38 101.56C249.244 102.163 248.918 102.707 248.45 103.11C247.71 103.89 246.94 104.64 246.13 105.35C245.716 105.782 245.189 106.09 244.61 106.24C243.994 106.275 243.381 106.137 242.84 105.84C240.51 104.84 237.84 103.49 237.39 101C237.298 100.247 237.251 99.4888 237.25 98.73C237.03 95.62 231.43 90.1 233.06 87.35C235.38 83.51 240.2 90.19 241.54 91.59Z" fill="url(#paint16_linear)"/>
<path d="M236.97 93.05C236.902 93.3151 236.899 93.5929 236.961 93.8594C237.024 94.1259 237.151 94.3732 237.33 94.58C237.699 94.9809 238.132 95.3187 238.61 95.58L245.78 100.13C246.84 100.81 247.58 99.53 247.01 98.62C246.6 97.97 245.4 97.75 244.76 97.4C242.15 95.99 239.6 94.46 236.97 93.05Z" fill="#3F3D56"/>
<path d="M252.78 69.3C252.12 69.3 251.33 69.36 250.99 69.93C250.876 70.1683 250.841 70.437 250.892 70.6963C250.942 70.9557 251.075 71.1919 251.27 71.37C251.666 71.7207 252.163 71.9376 252.69 71.99C252.95 71.99 253.25 72.07 253.39 72.29C253.443 72.4024 253.467 72.5261 253.46 72.65C253.383 73.1132 253.16 73.5397 252.824 73.8672C252.488 74.1946 252.055 74.4059 251.59 74.47C250.68 74.68 249.72 74.57 248.8 74.71C247.833 74.9084 246.9 75.2452 246.03 75.71C245.146 76.0168 244.411 76.6452 243.97 77.47C243.839 77.9926 243.885 78.5438 244.1 79.0376C244.315 79.5314 244.688 79.9401 245.16 80.2C246.121 80.6917 247.19 80.9358 248.27 80.91C250.61 80.9939 252.952 80.8701 255.27 80.54C256.283 80.4311 257.276 80.1821 258.22 79.8C258.92 79.486 259.59 79.1077 260.22 78.67L263.94 76.25C267.4 74 265.17 71.07 262.08 69.75C259.38 68.65 255.58 69.32 252.78 69.3Z" fill="url(#paint17_linear)"/>
<path d="M155.86 76.8701H122.38V121.11H155.86V76.8701Z" fill="white"/>
<path d="M239.303 244.23L272.7 241.883L269.599 197.752L236.201 200.099L239.303 244.23Z" fill="white"/>
<path d="M115.71 308.53C113.38 307.53 110.99 306.38 109.39 304.41C108.38 303.012 107.59 301.468 107.05 299.83L100.05 281.68C99.1865 279.585 98.478 277.429 97.93 275.23C97.4981 272.987 97.2407 270.713 97.16 268.43C96.9101 266.384 97.0183 264.309 97.48 262.3C98.19 259.84 99.9 257.82 101.6 255.92C103.6 253.74 105.6 251.62 107.6 249.52C109.104 247.811 110.845 246.326 112.77 245.11C114.533 244.097 116.518 243.533 118.55 243.47C119.013 243.437 119.477 243.491 119.92 243.63C120.336 243.811 120.721 244.057 121.06 244.36C122.7 245.708 124.268 247.14 125.76 248.65C126.59 249.49 127.46 250.6 127.14 251.74C126.73 253.25 124.76 253.49 123.29 254C119.52 255.32 117.91 259.68 115.09 262.52C114.09 263.52 112.87 264.41 112.29 265.72C111.71 267.03 112.22 268.95 113.63 269.18C113.826 268.038 114.281 266.957 114.961 266.019C115.64 265.081 116.526 264.312 117.55 263.77C118.809 263.172 120.163 262.796 121.55 262.66C123.273 262.43 125.012 262.34 126.75 262.39C127.058 262.372 127.364 262.445 127.63 262.6C127.911 262.842 128.098 263.174 128.16 263.54C129.709 268.61 130.698 273.835 131.11 279.12C131.28 282.869 131.24 286.625 130.99 290.37L130.38 302.42C130.25 305.23 131.08 310.86 127.38 311.42C123.54 312.07 119.13 310.03 115.71 308.53Z" fill="#65617D"/>
<path d="M148.83 286.39C148.815 284.209 148.635 282.033 148.29 279.88C147.14 273.72 143.29 268.36 141.72 262.3C141.637 262.115 141.604 261.912 141.623 261.71C141.642 261.509 141.714 261.316 141.83 261.15C142.073 260.967 142.378 260.884 142.68 260.92C146.607 260.92 150.537 261.027 154.47 261.24C154.841 261.242 155.21 261.306 155.56 261.43C156.82 261.93 157.04 263.56 157.27 264.9C157.932 267.813 159.056 270.602 160.6 273.16C162.09 270.97 163.6 268.51 163.3 265.89C163.013 264.446 162.416 263.081 161.55 261.89C159.317 258.382 156.752 255.097 153.89 252.08C153.49 251.74 153.209 251.281 153.09 250.77C153.104 250.419 153.195 250.075 153.356 249.763C153.516 249.45 153.743 249.176 154.02 248.96C156.498 246.42 159.119 244.022 161.87 241.78C162 241.645 162.155 241.538 162.327 241.464C162.498 241.39 162.683 241.351 162.87 241.35C163.212 241.446 163.503 241.672 163.68 241.98C167.68 247.2 171.503 252.56 175.15 258.06C177.52 261.63 179.87 265.48 180.05 269.75C180.025 272.399 179.559 275.025 178.67 277.52C176.563 284.56 174.197 291.51 171.57 298.37C170.682 301.142 169.299 303.73 167.49 306.01C163.99 309.94 158.19 311.27 153.12 310.57C147.55 309.81 149.33 301.89 149.2 297.72L148.83 286.39Z" fill="#65617D"/>
<path d="M134.45 238.14C134.921 238.248 135.353 238.483 135.7 238.82C136.49 239.71 135.94 241.14 135.18 242.06C134.132 243.336 132.776 244.324 131.24 244.93C130.14 245.36 128.84 245.69 128.32 246.75C129.376 247.029 130.474 247.111 131.56 246.99C131.75 247.53 131.25 248.07 130.75 248.36C129.765 248.869 128.668 249.121 127.559 249.093C126.451 249.065 125.368 248.758 124.41 248.2C122.98 247.43 120.81 245.77 120.55 244.04C120.29 242.31 122.25 240.77 123.55 239.89C125.127 238.816 126.921 238.103 128.805 237.801C130.689 237.498 132.616 237.614 134.45 238.14Z" fill="url(#paint18_linear)"/>
<path d="M154.56 235.07C153.467 233.621 152.039 232.457 150.399 231.679C148.758 230.901 146.954 230.53 145.14 230.6C143.68 230.67 141.92 231.38 141.85 232.84C141.892 233.549 142.162 234.226 142.62 234.77C143.73 236.392 144.971 237.92 146.33 239.34C147.15 240.2 148.1 241.34 147.62 242.46C147.14 243.58 145.43 243.83 145.09 245C145.05 245.117 145.05 245.243 145.09 245.36C145.133 245.441 145.192 245.511 145.265 245.566C145.337 245.621 145.421 245.66 145.51 245.68C147.62 246.42 150.02 245.35 152.15 246.02C152.82 246.23 153.43 246.61 154.15 246.83C156.48 247.58 160.4 245.63 159.34 242.78C158.85 241.48 157.65 240.33 156.97 239.1C156.255 237.706 155.45 236.359 154.56 235.07Z" fill="url(#paint19_linear)"/>
<path d="M218.38 274.7C216.06 268.7 216.38 261.94 217.25 255.54C217.337 254.288 217.678 253.067 218.25 251.95C219.258 250.5 220.706 249.413 222.38 248.85C228.92 246.2 236.26 246.66 243.28 247.37C243.699 247.372 244.108 247.493 244.46 247.72C244.779 248.036 244.995 248.44 245.08 248.88C245.8 251.31 246.29 254.45 244.22 255.88C241.86 257.55 238.01 255.48 235.92 257.47C235.476 257.97 235.155 258.566 234.981 259.212C234.808 259.858 234.787 260.535 234.92 261.19C235.1 262.5 235.57 263.77 235.69 265.09C235.75 266.508 235.478 267.921 234.897 269.216C234.315 270.511 233.44 271.653 232.34 272.55C230.113 274.323 227.475 275.506 224.67 275.99C222.832 276.494 220.886 276.438 219.08 275.83C217.33 275.1 215.95 273.19 216.4 271.35" fill="#65617D"/>
<path d="M254.09 248.5C255.084 248.888 255.948 249.55 256.58 250.41C256.893 250.848 257.061 251.372 257.061 251.91C257.061 252.448 256.893 252.972 256.58 253.41C256.132 253.899 255.552 254.246 254.91 254.41C253.042 255.008 251.073 255.222 249.12 255.04C249.27 255.69 249.21 256.66 248.54 256.69C248.345 256.676 248.156 256.614 247.99 256.51C245.99 255.46 237.8 252.39 241.78 249.01C244.8 246.35 250.77 246.99 254.09 248.5Z" fill="url(#paint20_linear)"/>
<path d="M271.64 259.65C271.093 257.058 270.206 254.549 269 252.19C266.93 248.53 263.45 245.92 260.68 242.75C260.411 242.511 260.199 242.214 260.063 241.882C259.926 241.549 259.867 241.189 259.89 240.83C260.015 240.452 260.227 240.11 260.51 239.83L262.71 237.3C263.122 236.698 263.73 236.256 264.43 236.05C264.909 236.003 265.393 236.071 265.84 236.25C274.3 238.94 281.16 245.64 285.15 253.57C289.14 261.5 290.42 270.57 290.04 279.47C290.046 281.646 289.642 283.803 288.85 285.83C288.443 286.836 287.806 287.734 286.99 288.449C286.174 289.165 285.201 289.679 284.15 289.95C283.838 290.032 283.512 290.051 283.192 290.005C282.873 289.958 282.566 289.848 282.29 289.68C281.894 289.338 281.591 288.901 281.41 288.41C277.274 279.145 274.003 269.517 271.64 259.65Z" fill="#65617D"/>
<path d="M279.28 294.85C280.848 292.897 281.926 290.597 282.426 288.143C282.925 285.689 282.83 283.15 282.15 280.74C281.178 277.705 279.507 274.94 277.27 272.67C271.89 266.96 264.27 263.62 256.52 262.52C248.77 261.42 240.81 262.46 233.24 264.52C229 265.67 224.77 267.2 221.35 269.96C219.595 271.236 218.312 273.058 217.7 275.14C217.17 277.41 217.88 279.78 218.8 281.92C221.74 288.82 227.09 294.92 234.13 297.51C237.631 298.649 241.28 299.268 244.96 299.35C251.55 299.73 258.8 298.35 265.23 299.65C270.68 300.75 275.58 299.37 279.28 294.85Z" fill="#65617D"/>
<path d="M261.38 233.05C258.52 232.015 255.447 231.713 252.44 232.17C251.598 232.233 250.783 232.493 250.06 232.93C249.708 233.158 249.427 233.481 249.251 233.861C249.074 234.241 249.008 234.664 249.06 235.08C249.182 235.461 249.383 235.813 249.65 236.111C249.917 236.409 250.244 236.647 250.61 236.81C251.335 237.134 252.009 237.562 252.61 238.08C252.911 238.346 253.108 238.709 253.167 239.107C253.225 239.504 253.141 239.909 252.93 240.25C252.54 240.74 251.73 240.97 251.68 241.61C251.63 242.25 252.56 242.61 253.26 242.61C255.66 242.61 258.02 241.97 260.42 242.01C261.97 242.01 263.52 242.36 265.08 242.28C265.55 242.277 266.012 242.164 266.43 241.95C268.16 240.95 268.09 238.35 267.02 237.01C265.521 235.217 263.576 233.851 261.38 233.05Z" fill="url(#paint21_linear)"/>
<path d="M129.47 290.53C130.75 287.963 132.938 285.964 135.61 284.92C137.752 284.27 140.038 284.27 142.18 284.92C144.301 285.586 146.34 286.489 148.26 287.61C148.964 287.948 149.609 288.397 150.17 288.94C150.61 289.465 150.977 290.047 151.26 290.67L152.62 293.33C153.512 294.897 154.185 296.58 154.62 298.33C154.872 299.837 154.909 301.372 154.73 302.89C154.585 305.56 153.983 308.184 152.95 310.65C151.891 313.127 149.978 315.142 147.56 316.33C145.17 317.238 142.583 317.5 140.06 317.09C138.373 316.957 136.715 316.577 135.14 315.96C131.97 314.489 129.514 311.82 128.31 308.54C127.211 305.628 126.747 302.516 126.947 299.41C127.147 296.304 128.007 293.277 129.47 290.53Z" fill="url(#paint22_linear)"/>
<path d="M128.58 299.65C128.37 300.061 128.271 300.52 128.292 300.981C128.313 301.442 128.454 301.89 128.7 302.28C128.966 302.6 129.179 302.962 129.33 303.35C129.43 303.75 129.17 304.28 128.75 304.24C128.33 304.2 128.23 303.83 127.95 303.64C127.717 303.518 127.449 303.485 127.193 303.546C126.938 303.606 126.713 303.757 126.56 303.97C126.262 304.407 126.099 304.921 126.09 305.45C125.944 307.889 126.43 310.325 127.5 312.521C128.571 314.718 130.189 316.602 132.2 317.99C134.236 319.349 136.527 320.279 138.934 320.723C141.341 321.166 143.814 321.114 146.2 320.57C148.423 320.202 150.487 319.182 152.13 317.64C154.88 314.8 155.07 310.42 155.07 306.47C155.07 305.1 155.02 303.6 154.07 302.59C153.6 302.148 153.03 301.826 152.408 301.651C151.786 301.477 151.132 301.456 150.5 301.59C149.235 301.846 147.994 302.207 146.79 302.67C144.033 303.408 141.183 303.745 138.33 303.67C136.875 303.758 135.414 303.623 134 303.27C131.8 302.56 130.68 300.54 128.58 299.65Z" fill="#3F3D56"/>
<path d="M254.8 275.57C252.115 274.969 249.306 275.314 246.846 276.545C244.386 277.777 242.427 279.82 241.3 282.33C240.613 283.88 240.391 285.596 240.66 287.27C241.024 288.789 241.793 290.182 242.885 291.3C243.976 292.417 245.35 293.219 246.86 293.62C249.907 294.375 253.118 294.097 255.99 292.83C258.09 291.99 261.43 290.62 262.93 288.83C264.03 287.54 263.54 285.54 263.13 284C262.59 281.994 261.538 280.163 260.078 278.685C258.618 277.207 256.799 276.134 254.8 275.57Z" fill="url(#paint23_linear)"/>
<path d="M240.6 300.73C245.088 303.669 250.482 304.896 255.8 304.19C258.435 303.803 260.939 302.794 263.106 301.246C265.273 299.698 267.039 297.657 268.26 295.29C269.202 293.11 269.874 290.823 270.26 288.48C270.85 286.258 271.046 283.95 270.84 281.66C270.722 280.519 270.313 279.427 269.651 278.49C268.989 277.553 268.096 276.802 267.06 276.31C264.92 275.48 262.06 276.64 261.61 278.89C261.16 281.14 262.93 283.78 261.37 285.39C260.25 286.55 258.37 286.09 256.78 285.78C254.046 285.291 251.231 285.53 248.619 286.475C246.006 287.419 243.689 289.035 241.9 291.16C241.264 290.054 240.754 288.88 240.38 287.66C240.214 286.255 240.393 284.831 240.9 283.51C237.14 282.68 232.13 284.61 232.16 289C232.17 293.71 236.92 298.4 240.6 300.73Z" fill="#3F3D56"/>
<path d="M165.68 215.59H120.35V229.1H165.68V215.59Z" fill="url(#paint24_linear)"/>
<defs>
<linearGradient id="paint0_linear" x1="442.36" y1="135.73" x2="-88.09" y2="213.44" gradientUnits="userSpaceOnUse">
<stop stop-opacity="0"/>
<stop offset="0.99"/>
</linearGradient>
<linearGradient id="paint1_linear" x1="303.69" y1="179.07" x2="-73.88" y2="127.54" gradientUnits="userSpaceOnUse">
<stop offset="0.02" stop-color="#3F3D56"/>
<stop offset="0.32" stop-color="#110334" stop-opacity="0.39"/>
<stop offset="0.68" stop-color="white" stop-opacity="0.68"/>
<stop offset="1" stop-color="white"/>
</linearGradient>
<linearGradient id="paint2_linear" x1="17722.3" y1="2029.51" x2="17678.2" y2="3840.84" gradientUnits="userSpaceOnUse">
<stop stop-opacity="0"/>
<stop offset="0.99"/>
</linearGradient>
<linearGradient id="paint3_linear" x1="5405.87" y1="2766.61" x2="5395.17" y2="3077.7" gradientUnits="userSpaceOnUse">
<stop stop-opacity="0"/>
<stop offset="0.99"/>
</linearGradient>
<linearGradient id="paint4_linear" x1="10429.4" y1="7466.45" x2="12736.1" y2="8946.05" gradientUnits="userSpaceOnUse">
<stop stop-opacity="0"/>
<stop offset="0.99"/>
</linearGradient>
<linearGradient id="paint5_linear" x1="9726.99" y1="8584.76" x2="9729.96" y2="11603.2" gradientUnits="userSpaceOnUse">
<stop stop-opacity="0"/>
<stop offset="0.99"/>
</linearGradient>
<linearGradient id="paint6_linear" x1="3588.65" y1="5394.66" x2="4372.7" y2="5279.81" gradientUnits="userSpaceOnUse">
<stop stop-opacity="0"/>
<stop offset="0.99"/>
</linearGradient>
<linearGradient id="paint7_linear" x1="1356.59" y1="1746.65" x2="1872.28" y2="2008.93" gradientUnits="userSpaceOnUse">
<stop stop-opacity="0"/>
<stop offset="0.99"/>
</linearGradient>
<linearGradient id="paint8_linear" x1="7657.03" y1="7114.84" x2="7693.73" y2="5734.43" gradientUnits="userSpaceOnUse">
<stop stop-opacity="0"/>
<stop offset="0.99"/>
</linearGradient>
<linearGradient id="paint9_linear" x1="1809.72" y1="2017.11" x2="2065.69" y2="2020.65" gradientUnits="userSpaceOnUse">
<stop offset="0.02" stop-color="white" stop-opacity="0"/>
<stop offset="0.32" stop-color="white" stop-opacity="0.39"/>
<stop offset="0.68" stop-color="white" stop-opacity="0.68"/>
<stop offset="1" stop-color="white"/>
</linearGradient>
<linearGradient id="paint10_linear" x1="6708.83" y1="2816.8" x2="9964.68" y2="2816.8" gradientUnits="userSpaceOnUse">
<stop offset="0.02" stop-color="white" stop-opacity="0"/>
<stop offset="0.32" stop-color="white" stop-opacity="0.39"/>
<stop offset="0.68" stop-color="white" stop-opacity="0.68"/>
<stop offset="1" stop-color="white"/>
</linearGradient>
<linearGradient id="paint11_linear" x1="6100.58" y1="12707.1" x2="6246.93" y2="13509.9" gradientUnits="userSpaceOnUse">
<stop offset="0.02" stop-color="white" stop-opacity="0"/>
<stop offset="0.32" stop-color="white" stop-opacity="0.39"/>
<stop offset="0.68" stop-color="white" stop-opacity="0.68"/>
<stop offset="1" stop-color="white"/>
</linearGradient>
<linearGradient id="paint12_linear" x1="134.59" y1="35.71" x2="157.57" y2="35.71" gradientUnits="userSpaceOnUse">
<stop stop-color="#E5C5D5"/>
<stop offset="0.42" stop-color="#EAD4D1"/>
<stop offset="1" stop-color="#F0E9CB"/>
</linearGradient>
<linearGradient id="paint13_linear" x1="2905.05" y1="2752.23" x2="3091.45" y2="2752.23" gradientUnits="userSpaceOnUse">
<stop stop-color="#E5C5D5"/>
<stop offset="0.42" stop-color="#EAD4D1"/>
<stop offset="1" stop-color="#F0E9CB"/>
</linearGradient>
<linearGradient id="paint14_linear" x1="1713.93" y1="1430.93" x2="1863.33" y2="1430.93" gradientUnits="userSpaceOnUse">
<stop stop-color="#E5C5D5"/>
<stop offset="0.42" stop-color="#EAD4D1"/>
<stop offset="1" stop-color="#F0E9CB"/>
</linearGradient>
<linearGradient id="paint15_linear" x1="5570.33" y1="1154.62" x2="5987.79" y2="1154.62" gradientUnits="userSpaceOnUse">
<stop stop-color="#E5C5D5"/>
<stop offset="0.42" stop-color="#EAD4D1"/>
<stop offset="1" stop-color="#F0E9CB"/>
</linearGradient>
<linearGradient id="paint16_linear" x1="4496.16" y1="2361.58" x2="4772.68" y2="2361.58" gradientUnits="userSpaceOnUse">
<stop stop-color="#E5C5D5"/>
<stop offset="0.42" stop-color="#EAD4D1"/>
<stop offset="1" stop-color="#F0E9CB"/>
</linearGradient>
<linearGradient id="paint17_linear" x1="6073.3" y1="1158.74" x2="6547.51" y2="1158.74" gradientUnits="userSpaceOnUse">
<stop stop-color="#E5C5D5"/>
<stop offset="0.42" stop-color="#EAD4D1"/>
<stop offset="1" stop-color="#F0E9CB"/>
</linearGradient>
<linearGradient id="paint18_linear" x1="2363.21" y1="3222.77" x2="2605.46" y2="3222.77" gradientUnits="userSpaceOnUse">
<stop stop-color="#E5C5D5"/>
<stop offset="0.42" stop-color="#EAD4D1"/>
<stop offset="1" stop-color="#F0E9CB"/>
</linearGradient>
<linearGradient id="paint19_linear" x1="3065.39" y1="4427.94" x2="3376.53" y2="4427.94" gradientUnits="userSpaceOnUse">
<stop stop-color="#E5C5D5"/>
<stop offset="0.42" stop-color="#EAD4D1"/>
<stop offset="1" stop-color="#F0E9CB"/>
</linearGradient>
<linearGradient id="paint20_linear" x1="4563.96" y1="2802.84" x2="4831.57" y2="2802.84" gradientUnits="userSpaceOnUse">
<stop stop-color="#E5C5D5"/>
<stop offset="0.42" stop-color="#EAD4D1"/>
<stop offset="1" stop-color="#F0E9CB"/>
</linearGradient>
<linearGradient id="paint21_linear" x1="5358.75" y1="2941.05" x2="5710.72" y2="2941.05" gradientUnits="userSpaceOnUse">
<stop stop-color="#E5C5D5"/>
<stop offset="0.42" stop-color="#EAD4D1"/>
<stop offset="1" stop-color="#F0E9CB"/>
</linearGradient>
<linearGradient id="paint22_linear" x1="4332.1" y1="10730.1" x2="5113.01" y2="10730.1" gradientUnits="userSpaceOnUse">
<stop stop-color="#E5C5D5"/>
<stop offset="0.42" stop-color="#EAD4D1"/>
<stop offset="1" stop-color="#F0E9CB"/>
</linearGradient>
<linearGradient id="paint23_linear" x1="6330.08" y1="5935.4" x2="6861.67" y2="5935.4" gradientUnits="userSpaceOnUse">
<stop stop-color="#E5C5D5"/>
<stop offset="0.42" stop-color="#EAD4D1"/>
<stop offset="1" stop-color="#F0E9CB"/>
</linearGradient>
<linearGradient id="paint24_linear" x1="5575.81" y1="3219.54" x2="7630.62" y2="3219.54" gradientUnits="userSpaceOnUse">
<stop stop-opacity="0"/>
<stop offset="0.99"/>
</linearGradient>
</defs>
</svg>
