<svg width="1094" height="760" viewBox="0 0 1094 760" fill="none" xmlns="http://www.w3.org/2000/svg">
<path opacity="0.1" d="M415.11 344.05H299.24C295.137 344.05 291.81 347.377 291.81 351.48V376.14C291.81 380.243 295.137 383.57 299.24 383.57H415.11C419.213 383.57 422.54 380.243 422.54 376.14V351.48C422.54 347.377 419.213 344.05 415.11 344.05Z" fill="#00BFA6"/>
<path opacity="0.1" d="M415.11 284.76H299.24C295.137 284.76 291.81 288.087 291.81 292.19V316.85C291.81 320.953 295.137 324.28 299.24 324.28H415.11C419.213 324.28 422.54 320.953 422.54 316.85V292.19C422.54 288.087 419.213 284.76 415.11 284.76Z" fill="#00BFA6"/>
<path opacity="0.1" d="M415.11 205.71H299.24C295.137 205.71 291.81 209.037 291.81 213.14V237.8C291.81 241.903 295.137 245.23 299.24 245.23H415.11C419.213 245.23 422.54 241.903 422.54 237.8V213.14C422.54 209.037 419.213 205.71 415.11 205.71Z" fill="#00BFA6"/>
<path opacity="0.1" d="M415.11 146.43H299.24C295.137 146.43 291.81 149.757 291.81 153.86V178.52C291.81 182.623 295.137 185.95 299.24 185.95H415.11C419.213 185.95 422.54 182.623 422.54 178.52V153.86C422.54 149.757 419.213 146.43 415.11 146.43Z" fill="#00BFA6"/>
<path d="M240 321L194 603L402 581L393 557L230.5 570.5L268.5 320.5L240 321Z" fill="#3F3D56"/>
<path d="M186 1L466 0L547 613L266 651L186 1Z" fill="#3F3D56"/>
<path d="M216.5 24.5H442.5L521.5 594.5L288.5 626.5L216.5 24.5Z" fill="#D1D1D7"/>
<path d="M429.64 568.86C431.06 571.58 432.12 574.52 433.97 576.97C439.37 584.19 449.62 585.32 457.31 590.03C457.695 590.225 458.012 590.532 458.22 590.91C458.57 591.74 457.79 592.61 457.04 593.13C451.21 597.22 443.56 597.31 436.43 597.26C434.034 597.345 431.637 597.117 429.3 596.58C425.53 595.58 422.3 592.95 418.58 591.88C416.651 591.398 414.677 591.12 412.69 591.05L404.88 590.52C402.801 590.49 400.742 590.108 398.79 589.39C397.818 589.018 396.955 588.405 396.284 587.61C395.612 586.814 395.153 585.861 394.95 584.84C394.73 583.18 395.44 581.57 395.86 579.95C396.86 576.11 396.55 571.47 399.54 568.85C400.772 567.907 402.185 567.226 403.69 566.85C409.125 565.018 414.673 563.542 420.3 562.43C424.93 561.52 427.59 564.92 429.64 568.86Z" fill="white"/>
<path d="M341.3 590.49C341.5 592.62 341.56 595.06 340.02 596.55C339.061 597.346 337.903 597.865 336.67 598.05C329.28 599.77 321.04 599.89 314.61 595.87C313.941 595.488 313.351 594.982 312.87 594.38C312.334 593.56 312.03 592.609 311.99 591.63C311.76 588.8 312.63 586.01 313.42 583.28C315.289 576.802 316.709 570.203 317.67 563.53C317.75 562.98 336.54 566.53 337.79 568.39C339.36 570.69 339.37 576.21 339.79 578.95C340.423 582.777 340.927 586.623 341.3 590.49Z" fill="white"/>
<path d="M411.24 330.27L416.24 376.76C417.24 386.26 418.29 395.81 417.6 405.34C416.8 416.34 413.72 427.34 415.02 438.24C415.53 442.48 416.69 446.64 416.86 450.91C416.892 453.749 416.748 456.588 416.43 459.41C414.17 487.62 421.32 515.61 425.32 543.62C425.963 547.075 426.105 550.605 425.74 554.1C425.22 557.65 424.18 562.31 427.34 563.99L397.66 574.75C393.87 570 396.38 562.61 395.66 556.58C395 551.15 392.02 546.31 390.43 541.08C388.99 536.38 388.69 531.43 388.22 526.55C385.63 499.98 377.68 474.1 375.82 447.47C375.76 444.898 375.425 442.34 374.82 439.84C373.82 436.53 371.82 433.64 370.36 430.53C368.12 425.86 367.02 420.74 365.94 415.68L359.59 385.93C353.17 395.49 353.43 407.93 352.16 419.39C350.38 435.39 346.4 451.12 343.16 466.92C342.407 470.32 341.843 473.758 341.47 477.22C340.63 486.49 342.3 495.85 341.41 505.11C340.41 515.84 335.9 526.31 336.99 537.04C337.59 542.98 339.87 548.6 341.41 554.36C342.95 560.12 343.71 566.44 341.36 571.93C333.147 568.914 324.324 567.94 315.65 569.09C306.12 559.34 304.43 545.74 303.78 532.09C303.13 518.44 304.7 504.77 303 491.25C302.5 487.25 301.72 483.35 301.59 479.36C301.17 466.57 307.32 454.6 310.38 442.17C313.134 430.98 313.397 419.322 311.15 408.02C309.65 400.55 307.07 393.3 306.15 385.73C304.9 375.12 307.02 364.43 309.15 353.95C310.58 346.88 312 339.81 313.62 332.78C315.36 325.23 317.43 317.52 322.08 311.34C329.52 301.45 342.73 297.06 355.08 298.02C367.43 298.98 378.96 304.6 389.16 311.6C397.199 316.973 404.606 323.236 411.24 330.27Z" fill="black"/>
<path d="M378.06 152.25C377.499 153.151 377.109 154.148 376.91 155.19C376.66 157.24 377.91 159.12 378.91 160.91C380.191 163.21 381.176 165.663 381.84 168.21C382.316 169.787 382.462 171.444 382.27 173.08C382.026 174.308 381.587 175.49 380.97 176.58C379.04 180.3 376.18 183.74 372.29 185.29C369.278 186.399 365.992 186.532 362.9 185.67C359.828 184.8 356.925 183.421 354.31 181.59C352.106 180.193 350.124 178.474 348.43 176.49C346.812 174.32 345.45 171.971 344.37 169.49C342.29 165.14 340.18 160.49 340.56 155.72C340.58 155.287 340.661 154.86 340.8 154.45C341.125 153.709 341.578 153.032 342.14 152.45C346.406 147.394 348.594 140.907 348.26 134.3L362.83 137.61C366.04 138.34 369.25 139.07 372.42 139.98C375.02 140.73 379.02 141.77 380.71 144.09C382.4 146.41 379.21 150.13 378.06 152.25Z" fill="#FBBEBE"/>
<path d="M370.26 149.77C384.885 149.77 396.74 137.915 396.74 123.29C396.74 108.666 384.885 96.8101 370.26 96.8101C355.636 96.8101 343.78 108.666 343.78 123.29C343.78 137.915 355.636 149.77 370.26 149.77Z" fill="#FBBEBE"/>
<path d="M366 176.71C367.12 174.26 369.54 172.71 371.75 171.17C373.96 169.63 376.2 167.66 376.63 164.99C376.656 164.386 376.806 163.794 377.07 163.25C377.92 161.97 379.94 162.61 381.15 163.55C384.09 165.84 386.09 169.09 388.04 172.26C390.563 176.115 392.722 180.196 394.49 184.45C397.3 191.86 397.64 199.95 397.95 207.86C398.23 215.06 398.5 222.37 396.75 229.35C395.65 233.77 393.75 238.06 393.64 242.61C393.31 259.14 387.57 274.94 387.17 291.47C387.14 296.25 387.38 301.027 387.89 305.78L388.83 316.51C374.29 315.677 359.79 314.4 345.33 312.68C344.91 307.74 343.5 302.95 342.21 298.17C336.928 278.628 333.542 258.622 332.1 238.43C331.33 227.71 330.54 217.03 329.35 206.35C328.28 196.64 326.18 186.87 327.44 177.18C328.099 172.776 329.485 168.511 331.54 164.56C332.19 162.986 333.307 161.649 334.74 160.73C335.456 160.384 336.217 160.138 337 160C339.267 159.541 341.568 159.27 343.88 159.19C344.445 159.142 345.014 159.197 345.56 159.35C346.534 159.836 347.334 160.611 347.85 161.57C352.305 168.268 358.611 173.528 366 176.71Z" fill="#F2F2F2"/>
<path d="M353.72 174.59C355.58 177.25 359.52 177.88 361.24 180.59C361.819 181.723 362.259 182.921 362.55 184.16C363.6 187.51 365.72 190.42 367.01 193.69C368.87 198.39 368.92 203.59 368.94 208.64C369.123 212.663 368.814 216.692 368.02 220.64C367.42 223.11 366.44 225.46 365.72 227.9C364.497 232.049 364.043 236.387 364.38 240.7C364.38 241.632 364.629 242.546 365.1 243.35C365.778 244.153 366.664 244.755 367.66 245.09C370.59 246.38 373.66 247.7 376.86 247.4C377.516 247.379 378.152 247.167 378.69 246.79C379.061 246.452 379.366 246.049 379.59 245.6L381.59 242.22C383.4 239.13 385.29 235.67 384.59 232.14C384.082 230.318 383.317 228.577 382.32 226.97C381.042 224.361 379.952 221.664 379.06 218.9C375.87 209.73 372.64 200.43 371.92 190.75C371.497 187.066 371.907 183.334 373.12 179.83C374.059 177.673 375.24 175.63 376.64 173.74C376.323 173.315 375.885 172.997 375.383 172.827C374.881 172.657 374.339 172.644 373.83 172.79C372.824 173.101 371.85 173.506 370.92 174C367.98 175.24 364.72 174.79 361.75 173.94C360.59 173.6 358.75 172.44 357.55 172.52C357.14 172.57 353.79 174.71 353.72 174.59Z" fill="black"/>
<path d="M377.13 174.48C376.53 174 375.6 173.56 375.07 174.12C374.892 174.363 374.763 174.638 374.69 174.93C374.17 176.33 372.64 177.02 371.25 177.56C369.86 178.1 368.36 178.4 367.52 177.37C367.255 176.969 367.125 176.494 367.148 176.014C367.171 175.534 367.347 175.073 367.65 174.7C368.265 173.959 369.007 173.333 369.84 172.85C374.44 169.603 377.573 164.673 378.56 159.13C379.85 160.155 380.704 161.631 380.95 163.26C381.28 164.85 381.32 166.49 381.65 168.08C382.14 170.36 383.23 172.49 383.48 174.8C383.61 176.03 383.48 177.27 383.48 178.5C383.525 179.703 383.665 180.9 383.9 182.08C381.56 179.6 379.91 176.69 377.13 174.48Z" fill="#F2F2F2"/>
<path d="M356.89 167.69C355.89 166.74 354.89 165.84 353.89 164.87C349.502 160.587 346.188 155.327 344.22 149.52C342.94 150.52 341.53 151.84 341.5 153.52C341.614 154.709 342.073 155.838 342.82 156.77C346.602 162.725 349.098 169.404 350.15 176.38C350.69 175.536 351.439 174.845 352.323 174.374C353.207 173.903 354.198 173.667 355.2 173.69C356.78 173.69 363.87 177.89 364.38 176.83C365.13 175.17 358.09 168.82 356.89 167.69Z" fill="#F2F2F2"/>
<path d="M379.22 159.73C388.627 169.094 400.142 176.066 412.8 180.06C414.058 180.334 415.225 180.927 416.19 181.78C416.911 182.68 417.395 183.745 417.6 184.88C420.04 194.42 420.86 204.29 421.67 214.1C421.882 215.722 421.848 217.368 421.57 218.98C420.98 221.6 419.12 223.72 417.29 225.69C411.55 231.84 405 238.27 404.03 246.63C403.956 248.242 403.765 249.846 403.46 251.43C402.96 253.29 401.85 254.93 401.17 256.74C397.83 265.65 405.38 276.44 400.78 284.74C403.27 289.524 404.978 294.676 405.84 300C405.994 302.018 406.456 304.001 407.21 305.88C408.58 308.74 411.4 310.56 413.62 312.88C420.39 319.82 421.22 330.44 421.62 340.13C421.87 345.59 421.79 351.86 417.62 355.44C415.21 357.53 411.92 358.21 408.77 358.73C404.58 359.43 400.02 359.93 396.31 357.86C393.65 356.38 391.84 353.79 390.11 351.29C386.83 346.52 383.54 341.76 380.43 336.87C375.51 329.16 370.87 320.35 372.29 311.31C371.89 320.56 369.94 329.88 365.4 337.94C360.86 346 353.55 352.73 344.68 355.39C335.81 358.05 325.44 356.17 318.83 349.69C316.672 347.468 314.819 344.97 313.32 342.26C309.557 335.817 306.812 328.831 305.18 321.55C304.75 319.66 304.43 317.55 305.38 315.86C305.83 315.06 306.52 314.43 306.99 313.64C308.57 310.95 307.05 307.56 305.52 304.82C303.19 305.04 301.52 302.3 301.73 299.96C301.94 297.62 303.34 295.59 304.33 293.46C307.23 287.18 306.59 279.87 305.19 273.1C303.79 266.33 301.7 259.6 301.86 252.69C302.03 245.38 296.77 238.8 292.76 232.69C290.52 229.25 287.91 226.05 285.96 222.44C281.894 214.843 280.954 205.959 283.34 197.68C284.74 193.429 286.577 189.333 288.82 185.46L292.12 179.27C292.734 177.791 293.688 176.477 294.904 175.435C296.12 174.393 297.564 173.651 299.12 173.27L321.95 164.27C324.869 163.273 327.641 161.887 330.19 160.15C332.98 158.05 335.06 155.15 337.72 152.91C338.108 152.503 338.573 152.177 339.088 151.952C339.603 151.727 340.158 151.608 340.72 151.6C342.86 151.79 343.62 154.49 343.84 156.6C344.34 161.32 347.84 165.32 349.03 169.91C355.47 195.26 369.1 218.64 372.84 244.52C377.04 234.43 381.24 224.32 386.62 214.82C387.469 213.456 388.182 212.013 388.75 210.51C389.396 208.343 389.636 206.075 389.46 203.82C389.19 197.31 387.46 190.95 385.75 184.66C383.53 176.1 381.53 168.21 379.22 159.73Z" fill="black"/>
<path d="M422.73 237.19C423.17 241.45 423.6 245.72 424.39 249.93C425.31 254.8 426.71 259.56 428.1 264.32C428.779 266.996 429.751 269.588 431 272.05C431.453 272.765 431.812 273.534 432.07 274.34C432.56 276.34 431.44 278.34 430.96 280.34C429.52 286.34 433.84 293.01 431.12 298.54C430.3 300.22 428.87 301.61 428.33 303.41C427.7 305.48 428.33 307.69 428.66 309.83C429.51 315.83 427.46 321.93 425.44 327.7L422 337.44C418.86 331.6 415.69 325.7 411.35 320.69C409.8 318.89 408.11 317.22 406.68 315.32C404.548 312.334 402.863 309.053 401.68 305.58C398.627 297.328 396.883 288.65 396.51 279.86C396.262 277.361 396.552 274.838 397.36 272.46C398.022 271.085 398.763 269.749 399.58 268.46C402.26 263.63 402.81 257.91 402.76 252.39C402.71 246.87 402.12 241.33 402.76 235.84C403.282 231.256 404.638 226.806 406.76 222.71C408.012 220.057 409.872 217.738 412.19 215.94C413.92 214.645 416.03 213.959 418.19 213.99C421.46 214.18 420.71 216.99 420.99 219.7L422.73 237.19Z" fill="black"/>
<path d="M275.64 223.58C273.6 229.58 271.76 235.633 270.12 241.74C268.52 247.74 267.09 253.773 265.83 259.84C265.183 262.507 264.821 265.236 264.75 267.98C264.878 271.175 265.426 274.338 266.38 277.39C272.82 300.6 284.56 322.01 297.78 342.14C301.558 337.429 306.044 333.333 311.08 330C311.492 329.756 311.836 329.412 312.08 329C312.207 328.611 312.244 328.199 312.188 327.793C312.133 327.388 311.986 327.001 311.76 326.66C308.11 319.18 302.33 312.59 300.51 304.46C299.75 301.08 299.72 297.56 298.86 294.2C297.75 289.85 295.27 285.87 294.7 281.41C294.09 276.55 295.7 271.25 293.42 266.94C298.07 265.13 300.76 260.34 302.73 255.75C304.835 251.054 306.34 246.112 307.21 241.04C308.579 231.316 306.676 221.413 301.8 212.89C299.418 208.638 296.362 204.802 292.75 201.53C291.56 200.46 288.75 197.39 287.02 197.42C284.71 197.47 283.97 201.21 283.31 202.89C280.64 209.75 278 216.62 275.64 223.58Z" fill="black"/>
<path d="M317.06 335.51C317.36 335.73 317.7 336.03 317.62 336.39C317.54 336.75 317.25 336.84 316.99 336.99C315.638 337.949 314.629 339.316 314.11 340.89C312.448 344.635 310.999 348.471 309.77 352.38C307.532 349.027 304.9 345.955 301.93 343.23C299.65 341.13 297.1 339.14 295.88 336.3C295.88 336.22 301.12 332.35 301.6 331.93C303.07 330.62 304.92 326.99 306.44 326.19C308.16 325.29 309.8 328.82 311.11 330.24C312.912 332.191 314.905 333.957 317.06 335.51Z" fill="#FBBEBE"/>
<path d="M398.38 119.15C398.31 117.84 398.14 116.39 397.14 115.54C396.262 114.933 395.205 114.64 394.14 114.71C388.31 114.52 382.28 115.5 376.78 113.54C373.16 112.25 370.07 109.77 366.54 108.23C363.01 106.69 358.49 106.28 355.64 108.87C353.48 110.87 352.89 113.94 352.14 116.77C350.489 123.016 347.549 128.848 343.51 133.89C340.8 133.05 338.86 130.63 337.61 128.09C333.36 119.43 335.45 109.09 338.47 99.91C339.47 96.83 340.58 93.78 341.69 90.74L344.13 84.02C347.333 83.7055 350.308 82.2249 352.49 79.86L353.54 82.41C356.252 82.3124 358.869 81.3877 361.04 79.76C361.88 81.34 364.04 81.76 365.79 81.25C367.54 80.74 369.05 79.76 370.79 79.25C375.44 77.75 380.4 80.06 385.28 80.32C387.345 80.2697 389.411 80.3298 391.47 80.5C397.23 81.43 401.3 86.85 403.06 92.41C404.23 96.11 405.2 100.66 408.85 101.97C408.93 103.37 406.45 103.64 406.24 104.97C406.215 105.413 406.319 105.854 406.54 106.24L409.89 113.43C408.289 113.832 406.604 113.748 405.05 113.19C403.54 116.74 398.53 121.86 398.38 119.15Z" fill="#192534"/>
<path d="M568.14 134.8C569.837 140.283 571.174 145.872 572.14 151.53C572.86 155.77 573.28 160.48 570.85 164.02C580.11 150.09 589.78 135.74 603.85 126.75C600.985 123.643 598.805 119.969 597.453 115.965C596.1 111.961 595.605 107.718 596 103.51C596.08 102.67 584.45 107.06 583.56 107.56C579.48 109.83 575.74 112.65 571.76 115.08C569.7 116.33 561.12 119.29 561.04 121.08C561.04 122.23 564.45 125.75 565.09 126.96C566.346 129.474 567.367 132.098 568.14 134.8Z" fill="#FBBEBE"/>
<path d="M611.17 660.18C608.884 658.57 606.204 657.608 603.415 657.397C600.627 657.185 597.833 657.732 595.33 658.98C590.8 661.32 587.75 665.75 583.63 668.75C576.55 673.89 567.2 674.3 558.91 677.08C556.71 677.82 554.37 678.92 553.44 681.08C553.128 681.988 553.004 682.95 553.074 683.907C553.145 684.864 553.409 685.798 553.85 686.65C555.236 689.739 557.664 692.242 560.71 693.72C564.43 695.5 568.71 695.58 572.83 695.63L608.63 696.05C619.63 696.18 630.7 696.31 641.63 697.68C644.18 698 646.94 698.35 649.19 697.1C652.85 695.1 653.27 690.04 652.99 685.87C652.253 675.305 649.892 664.916 645.99 655.07C645.56 653.98 644.99 652.74 643.78 652.54C642.921 652.501 642.077 652.771 641.4 653.3C631.3 659.3 618.51 662.69 607.77 657.89" fill="white"/>
<path d="M629.09 431.78C625.09 455.01 627.7 478.88 632.2 502.01C633.029 506.615 634.12 511.17 635.47 515.65C637.08 520.75 639.25 525.65 640.76 530.78C644.6 543.78 644.06 557.68 643.49 571.25L640.87 633C640.65 638.18 640.45 643.48 642.01 648.42C642.64 650.42 643.41 652.92 641.82 654.27C641.198 654.717 640.471 654.996 639.71 655.08C632.555 656.398 625.164 655.29 618.71 651.93L618 589.55C617.78 570.32 617.55 551.01 614.59 532.02C612.24 516.92 608.16 502.02 607.89 486.74C607.61 470.74 611.53 454.95 615.53 439.44C616.39 436.12 619.53 433.69 622.11 431.44C623.01 430.552 624.106 429.888 625.31 429.5C626.51 429.17 628.35 430.77 629.09 431.78Z" fill="#3F3D56"/>
<path opacity="0.1" d="M629.09 431.78C625.09 455.01 627.7 478.88 632.2 502.01C633.029 506.615 634.12 511.17 635.47 515.65C637.08 520.75 639.25 525.65 640.76 530.78C644.6 543.78 644.06 557.68 643.49 571.25L640.87 633C640.65 638.18 640.45 643.48 642.01 648.42C642.64 650.42 643.41 652.92 641.82 654.27C641.198 654.717 640.471 654.996 639.71 655.08C632.555 656.398 625.164 655.29 618.71 651.93L618 589.55C617.78 570.32 617.55 551.01 614.59 532.02C612.24 516.92 608.16 502.02 607.89 486.74C607.61 470.74 611.53 454.95 615.53 439.44C616.39 436.12 619.53 433.69 622.11 431.44C623.01 430.552 624.106 429.888 625.31 429.5C626.51 429.17 628.35 430.77 629.09 431.78Z" fill="black"/>
<path d="M554 359.18C552.52 365.27 555.66 371.58 555.31 377.84C555.11 381.63 553.62 385.41 554.31 389.13C555 392.85 557.66 395.65 559.08 399.06C560.116 401.908 560.663 404.91 560.7 407.94C561.11 415.42 560.78 422.94 560.5 430.39C560.03 442.89 559.68 455.46 561.33 467.85C562.767 478.584 565.685 489.067 570 499C571.308 501.702 572.388 504.508 573.23 507.39C573.783 510.075 574.15 512.795 574.33 515.53C575.281 524.426 577.668 533.109 581.4 541.24C583.95 546.81 588.4 551.24 589.81 557.15C591.15 562.81 590.25 568.78 591.22 574.51C591.93 578.76 593.66 582.78 594.62 586.98C595.87 592.41 595.84 598.04 596.47 603.58C598.27 619.58 605.54 635.58 601.2 651.1C600.33 654.22 598.98 657.39 599.59 660.57C599.89 662.13 600.65 663.67 600.31 665.22C600.03 666.54 599.01 667.56 598.49 668.81C597.49 671.15 598.55 673.93 600.33 675.74C602.229 677.427 604.436 678.731 606.83 679.58C614.2 682.73 621.83 685.93 629.83 685.86C630.801 685.912 631.771 685.734 632.66 685.34C634.1 684.59 634.81 682.96 635.42 681.46L639.52 671.32C640.02 670.09 640.52 668.65 639.83 667.51C639.35 666.885 638.768 666.344 638.11 665.91C634.8 663.12 635.55 657.91 636.43 653.72C638.678 642.958 639.923 632.012 640.15 621.02C640.59 599.1 636.98 577.31 633.38 555.68C632.13 548.17 630.87 540.61 628.38 533.41C625.89 526.21 622.22 519.28 622.82 511.8C623.46 503.72 621.36 495.25 622.82 487.28C624.28 479.31 626.59 471.51 628.08 463.55C630.01 453.22 630.49 442.69 631.08 432.21C631.33 427.93 631.65 423.51 633.65 419.71C634.82 417.49 636.52 415.59 637.83 413.44C641.21 407.85 641.75 400.92 644.98 395.24C646.51 392.55 648.62 390.18 649.74 387.3C650.526 385.028 650.938 382.644 650.96 380.24C651.277 374.205 650.942 368.153 649.96 362.19C632.937 353.528 614.058 349.148 594.96 349.43C587.65 349.55 580.26 350.29 573.4 352.82C566.86 355.25 560.9 358.66 554 359.18Z" fill="#3F3D56"/>
<path d="M595 676C592.06 679.66 592.26 684.89 590.38 689.2C588.1 694.43 583.02 697.78 578.2 700.83L548.2 719.83C546.56 720.83 544.8 722.06 544.2 723.92C543.915 725.107 543.967 726.351 544.35 727.51C545.066 730.019 546.401 732.308 548.232 734.168C550.063 736.027 552.332 737.396 554.83 738.15C557.485 738.783 560.212 739.062 562.94 738.98L576.43 739.16C580.54 739.321 584.655 739.16 588.74 738.68C592.48 738.14 596.12 737.07 599.84 736.39C606.61 735.16 613.57 735.27 620.35 734.08C624.502 733.264 628.602 732.205 632.63 730.91C637.53 729.44 642.52 727.91 646.72 725C647.876 724.296 648.814 723.286 649.43 722.08C650.14 720.43 649.75 718.54 649.35 716.79L642.91 688.49C642.547 686.133 641.688 683.881 640.39 681.88C638.96 679.98 636.39 678.72 634.16 679.53C633.24 679.949 632.371 680.473 631.57 681.09C628.27 683.26 624.04 683.62 620.14 682.94C617.62 682.49 614.29 681.8 612.26 680.13C610.72 678.86 610.26 676.89 608.95 675.45C608.032 674.507 606.925 673.767 605.702 673.279C604.48 672.791 603.168 672.566 601.852 672.618C600.537 672.67 599.247 672.998 598.067 673.58C596.886 674.163 595.841 674.987 595 676Z" fill="white"/>
<path d="M575.55 130.9C595.504 130.9 611.68 114.724 611.68 94.77C611.68 74.816 595.504 58.64 575.55 58.64C555.596 58.64 539.42 74.816 539.42 94.77C539.42 114.724 555.596 130.9 575.55 130.9Z" fill="#FBBEBE"/>
<path d="M547.68 96.89C551.14 94.95 551.14 89.36 554.68 87.5C558.22 85.64 562.24 88.87 564.51 92.13C567.819 96.9044 570.116 102.305 571.26 108C571.58 109.62 571.88 111.39 573.1 112.52C574.32 113.65 575.92 113.79 577.48 113.95C582.047 114.403 586.62 114.817 591.2 115.19C596.3 115.6 601.68 115.93 606.31 113.74C608.137 112.923 609.707 111.623 610.85 109.98C611.766 108.402 612.421 106.687 612.79 104.9C615.18 95.81 617.59 86.61 617.79 77.21C617.87 73.33 617.53 69.31 615.66 65.91C614.57 63.91 612.97 62.17 612.52 59.97C612.07 57.77 613.52 54.97 615.8 55.21C613.739 55.2948 611.686 54.9047 609.8 54.07C607.99 53.07 606.65 50.92 607.29 48.96C602.21 49.61 598.51 44.59 594.55 41.34C593.906 40.7016 593.037 40.3424 592.13 40.34C591.434 40.5136 590.762 40.7722 590.13 41.11C588.13 41.81 586.04 40.48 583.99 39.9C578.49 38.36 571.5 42.08 567.42 38.08C567.81 40.63 564.68 42.34 562.1 42.29C559.52 42.24 556.86 41.29 554.42 42.15C554.773 42.7964 554.98 43.5128 555.024 44.2481C555.068 44.9835 554.95 45.7195 554.676 46.4036C554.403 47.0877 553.982 47.703 553.443 48.2054C552.905 48.7079 552.261 49.085 551.56 49.31L552.77 51.95C551.523 52.1992 550.371 52.792 549.443 53.6614C548.516 54.5307 547.85 55.6421 547.52 56.87C546.19 62.12 546.52 69.58 546.84 74.98C547 77.35 549.31 96 547.68 96.89Z" fill="#192534"/>
<path d="M578.51 141.34C560.36 161.75 555.74 190.48 551.87 217.53L546.17 257.47C544.69 267.83 543.17 278.19 541.88 288.58C540.98 295.69 540.14 302.91 541.12 310.01C541.89 315.61 543.76 321.01 545.32 326.4C549.379 340.537 551.4 355.182 551.32 369.89C552.53 366.33 556.72 364.89 560.4 364.09C591.278 357.39 623.493 360.831 652.26 373.9C657.31 359.75 656.36 344.27 657.77 329.31C659.77 307.98 666.66 287.31 668.7 266.02C669.45 258.09 669.54 250.12 669.62 242.15C669.68 236.3 669.74 230.39 668.52 224.66C667.16 218.32 664.29 212.41 661.32 206.66C653.11 190.676 643.988 175.177 634 160.24C628.973 152.72 623.73 145.35 618.27 138.13C615.503 134.47 612.68 130.85 609.8 127.27C607.01 123.8 605.8 120.79 601.37 122.87C593 126.79 584.6 134.49 578.51 141.34Z" fill="#245274"/>
<path d="M588.91 311.22C584.482 311.38 580.049 311.24 575.64 310.8C572.37 310.48 569.03 310 565.84 310.8C564.453 311.149 563.155 311.786 562.03 312.67C561.613 313.041 561.314 313.526 561.168 314.064C561.022 314.603 561.037 315.173 561.21 315.703C561.383 316.234 561.707 316.702 562.142 317.052C562.577 317.401 563.105 317.616 563.66 317.67L567.08 317.97C569.25 318.16 571.51 318.38 573.2 319.97C573.894 320.595 574.335 321.452 574.44 322.38C574.65 324.71 572.63 325.98 570.82 326.95C568.247 328.158 565.867 329.742 563.76 331.65C562.11 333.244 561.073 335.368 560.83 337.65C560.822 337.853 560.868 338.055 560.963 338.235C561.058 338.415 561.199 338.567 561.371 338.676C561.544 338.784 561.741 338.845 561.945 338.853C562.148 338.861 562.35 338.815 562.53 338.72C566.53 336.72 569.14 330.79 573.53 331.78C569.537 333.044 566.117 335.675 563.87 339.21C563.316 340.054 563.063 341.061 563.152 342.066C563.242 343.072 563.669 344.018 564.363 344.751C565.058 345.484 565.98 345.961 566.979 346.104C567.979 346.247 568.997 346.048 569.87 345.54C570.52 345.159 571.148 344.742 571.75 344.29C574.724 341.882 577.388 339.114 579.68 336.05C576.48 342.8 573.24 350.7 576.92 357.41C577.103 357.779 577.39 358.087 577.745 358.297C578.1 358.506 578.508 358.608 578.92 358.59C580.08 358.47 580.42 357.38 580.61 356.42C581.21 353.33 581.36 350.07 582.88 347.32C586.4 340.94 595.08 340.32 601.69 337.21C609.62 333.53 615.05 325.61 617.24 317.15C618.006 314.683 618.14 312.063 617.63 309.53C616.16 303.84 609.14 302.53 604.63 305.28C599.1 308.79 595.89 311 588.91 311.22Z" fill="#FBBEBE"/>
<path opacity="0.1" d="M581.89 199.29C588.89 210.1 601.04 216.19 611.46 223.78C614.002 225.436 616.219 227.544 618 230C620.63 234.06 621 239.22 620.46 244C619.78 250.31 617.75 256.38 615.74 262.4L611.37 275.45C608.6 283.73 605.74 292.18 600.47 299.14C599.12 300.91 597.55 302.8 597.61 305.02C597.726 306.302 598.167 307.534 598.89 308.6C600.577 311.352 602.799 313.737 605.426 315.613C608.053 317.489 611.03 318.817 614.18 319.52C616.067 320 618.043 320 619.93 319.52C622.63 318.72 624.66 316.52 626.54 314.44C635.54 304.51 644.54 294.44 651.04 282.79C657.39 271.42 661.19 258.79 664.69 246.28C666.131 241.675 667.136 236.944 667.69 232.15C668.43 223.15 666.07 214.15 662.21 206.02C658.35 197.89 653.04 190.53 647.57 183.38C642.407 176.357 636.671 169.774 630.42 163.7C619.54 153.53 606.23 147.55 591.67 153.32C581.39 157.4 577.54 165.91 576.62 176.81C575.841 184.68 577.695 192.586 581.89 199.29Z" fill="black"/>
<path d="M585.53 196.55C592.53 207.36 604.69 213.45 615.1 221.04C617.634 222.712 619.84 224.833 621.61 227.3C624.24 231.36 624.61 236.51 624.07 241.3C623.38 247.61 621.36 253.68 619.34 259.7L614.97 272.7C612.2 280.98 609.34 289.42 604.07 296.39C602.73 298.16 601.16 300.04 601.22 302.27C601.33 303.551 601.771 304.781 602.5 305.84C604.184 308.593 606.405 310.98 609.03 312.857C611.655 314.735 614.63 316.066 617.78 316.77C619.67 317.25 621.65 317.25 623.54 316.77C626.24 315.98 628.26 313.77 630.15 311.7C639.15 301.76 648.15 291.7 654.65 280.05C661 268.68 664.8 256.05 668.3 243.53C669.745 238.929 670.75 234.201 671.3 229.41C672.04 220.41 669.68 211.41 665.83 203.27C661.98 195.13 656.66 187.78 651.19 180.63C646.01 173.644 640.26 167.098 634 161.06C623.13 150.9 609.82 144.91 595.26 150.69C584.97 154.77 581.13 163.27 580.2 174.18C579.466 182.02 581.34 189.883 585.53 196.55Z" fill="#3F3D56"/>
</svg>
