<svg width="1112" height="581" viewBox="0 0 1112 581" fill="none" xmlns="http://www.w3.org/2000/svg">
<path d="M966.33 346.53C964.76 341.332 964.925 335.765 966.8 330.67C969.8 322.91 977.11 317.31 979.68 309.38C984.46 294.65 971.58 280.86 963.68 267.51C956.433 255.124 953.15 240.817 954.27 226.51C955.5 211.15 961.79 196.46 962.27 181.06C962.7 166.71 958.05 152.75 953.46 139.15C949.67 127.91 945.81 116.54 939.4 106.56C927.28 87.6899 905.75 75.8299 883.61 73.8699C873.16 72.9399 862.94 76.3399 852.67 75.0099C838.41 73.1699 824.93 69.4699 810.39 69.0099C796.58 68.5999 781.31 70.3499 771.9 80.4699C764.71 88.2199 762.41 99.41 755.83 107.69C746.49 119.44 730.16 123.47 719.83 134.35C715.367 139.158 712.233 145.047 710.737 151.434C709.242 157.822 709.435 164.49 711.3 170.78C712.73 175.42 715.07 179.73 716.59 184.34C722.98 203.6 714.59 224.2 709.52 243.84C708.949 245.445 708.845 247.178 709.22 248.84C710.02 251.24 712.54 252.5 714.63 253.92C721.47 258.58 724.96 267.02 725.63 275.27C726.3 283.52 724.39 291.74 722.51 299.8C717.72 320.29 711.73 342.24 695.94 355.87C693.073 349.032 689.683 342.426 685.8 336.11C676.14 320.45 668.99 301.11 668.87 282.6C668.863 282.543 668.863 282.486 668.87 282.43C668.87 281.43 668.92 280.43 668.98 279.43C670.23 257.59 679.67 236.52 679.46 214.78C679.46 213.02 679.41 211.257 679.31 209.49C678.08 190.88 669.14 173.67 658.89 158.09C651.24 146.46 642.62 135.23 631.58 126.76C614.51 113.77 592.82 108.13 571.51 105.15C550.2 102.17 530.81 99.3699 509.33 97.9299C486.23 96.3799 460.81 95.5099 442.55 109.73C418.74 128.27 417.42 164.08 399.27 188.18C388.47 202.52 371.27 213.6 365.58 229.89C364.041 225.892 362.758 221.801 361.74 217.64C361.68 217.36 361.62 217.09 361.56 216.81C368.422 197.154 370.019 176.044 366.19 155.58C366.642 152.266 366.872 148.925 366.88 145.58C366.992 141.94 366.598 138.302 365.71 134.77C363.14 125.03 356.05 117.24 349.2 109.85C346.706 107.029 343.998 104.404 341.1 102C323.174 80.2811 298.111 65.6419 270.387 60.6969C242.663 55.7518 214.084 60.8229 189.754 75.0045C165.424 89.1861 146.928 111.555 137.569 138.115C128.209 164.676 128.596 193.698 138.66 220C137.78 226.82 135.14 233.45 130.29 238.26C128.08 240.45 125.22 243.19 125.7 245.99C125.551 246.787 125.663 247.611 126.02 248.34C126.511 249.213 127.195 249.962 128.02 250.53C135.016 255.876 143.729 258.473 152.51 257.83C159.92 279.608 174.447 298.256 193.75 310.77C193.75 311.437 193.727 312.083 193.68 312.71C193.68 313.82 193.59 314.92 193.54 316.04C193.54 316.29 193.54 316.54 193.54 316.79C193.54 316.7 193.54 316.6 193.54 316.5C193.54 316.4 158.72 361.89 126.54 363.58C109.36 364.48 94.3701 376.07 83.0101 389.32C69.3701 405.22 60.9501 423.5 60.2301 428.56C58.9001 437.84 49.6201 482.94 49.6201 482.94H316.96C313.8 499.18 309.54 519.87 309.54 519.87H742.33C741.33 505.96 740.22 493.1 739.19 482.21H793.6L793.54 482.54H1044.54L1060.46 458.65C1056.51 389.04 1015.45 350.77 966.33 346.53ZM341.43 268.77C347.077 271.808 353.143 273.992 359.43 275.25C362.16 275.81 365.21 276.16 367.54 274.63C369.084 273.464 370.227 271.845 370.81 270L370.93 270.3C377.68 287.3 383.93 304.84 385.14 323.1C385.25 324.82 385.32 326.54 385.33 328.27C385.357 338.686 383.208 348.993 379.02 358.53C356.411 346.64 334.607 333.278 313.75 318.53L312.34 317.93C312.34 318.04 312.83 319.29 313.41 321.4C313.55 321.91 313.7 322.47 313.85 323.07C312.42 318.45 311.12 313.73 309.98 308.92C309.85 308.35 309.72 307.78 309.59 307.21C323.208 297.215 334.145 284.01 341.43 268.77V268.77Z" fill="url(#paint0_linear)"/>
<path d="M806.38 72.55C792.79 72.14 777.75 73.87 768.5 83.83C761.42 91.45 759.16 102.47 752.68 110.62C743.49 122.19 727.42 126.15 717.24 136.86C712.846 141.593 709.761 147.389 708.288 153.677C706.815 159.965 707.005 166.528 708.84 172.72C710.25 177.28 712.55 181.53 714.05 186.06C720.34 205.06 712.13 225.29 707.05 244.62C706.483 246.205 706.383 247.919 706.76 249.56C707.54 251.92 710.03 253.16 712.08 254.56C718.81 259.15 722.25 267.45 722.86 275.56C723.47 283.67 721.64 291.77 719.79 299.7C714.88 320.7 708.68 343.31 691.63 356.54C684.43 362.19 674.81 366.77 672.93 375.77C670.73 386.31 680.79 395.27 690.44 400.04C718.77 414.04 751.66 414.24 782.65 420.48C809.94 425.98 837.16 436.4 864.78 432.84C877.09 431.26 888.86 426.93 900.51 422.64L973.05 395.91C975.099 395.284 977.027 394.313 978.75 393.04C983.12 389.4 983.27 382.48 980.89 377.31C978.51 372.14 974.19 368.18 970.39 363.94C962.11 354.67 955.81 341.58 960.33 330C963.33 322.36 970.48 316.85 973.01 309C977.71 294.5 965.01 280.92 957.31 267.78C950.187 255.601 946.956 241.536 948.05 227.47C949.26 212.35 955.45 197.89 955.9 182.73C956.32 168.61 951.75 154.87 947.23 141.48C943.5 130.42 939.7 119.23 933.39 109.4C921.46 90.83 900.27 79.16 878.47 77.22C868.18 76.31 858.13 79.65 848.02 78.35C833.97 76.62 820.69 72.98 806.38 72.55Z" fill="#F7D6C8"/>
<path d="M826.67 469.36C826.67 469.36 744.43 417.8 776.41 358.36C783.81 344.62 787.08 331.62 787.75 319.75C787.926 316.622 787.926 313.488 787.75 310.36C787.75 310.21 787.75 310.06 787.75 309.91C787.643 308.297 787.5 306.71 787.32 305.15C783.51 273.77 763.35 253.32 763.35 253.32C763.35 253.32 899.76 213.51 876.92 249.4C866.32 266.06 869.49 282.4 876.59 299.31C877.34 301.09 878.14 302.89 878.97 304.68C887.17 322.51 898.55 340.98 901.73 361.01C908.25 402.13 826.67 469.36 826.67 469.36Z" fill="#EFB7B9"/>
<path opacity="0.1" d="M876.92 249.4C866.32 266.06 869.49 282.4 876.59 299.31C863.43 307.795 848.326 312.787 832.702 313.816C817.077 314.844 801.449 311.876 787.29 305.19C783.51 273.77 763.35 253.32 763.35 253.32C763.35 253.32 899.77 213.5 876.92 249.4Z" fill="black"/>
<path d="M826.66 312.06C877.487 312.06 918.69 270.857 918.69 220.03C918.69 169.203 877.487 128 826.66 128C775.833 128 734.63 169.203 734.63 220.03C734.63 270.857 775.833 312.06 826.66 312.06Z" fill="#EFB7B9"/>
<path opacity="0.1" d="M787.75 310.4C787.75 310.25 787.75 310.1 787.75 309.95L787.86 309.77C787.8 309.99 787.76 310.2 787.75 310.4Z" fill="black"/>
<path opacity="0.1" d="M826.67 469.36C826.67 469.36 744.43 417.8 776.41 358.36C783.81 344.62 787.08 331.62 787.75 319.75C789.62 334.43 799.75 352.68 818.19 377.94C826.19 388.94 829.63 404.32 830.72 419.69L832.55 421.02L841.55 415.58C842.55 398.58 845.99 381.4 854.13 369.22C875.52 337.22 880.6 321.22 879.02 304.64C887.22 322.47 898.6 340.94 901.78 360.97C908.25 402.13 826.67 469.36 826.67 469.36Z" fill="black"/>
<path d="M958.51 345.51C909.51 341.95 878.51 303.91 878.51 303.91C881.12 321.73 876.88 337.68 854.03 371.91C845.94 384.05 842.51 401.2 841.51 418.24L832.51 423.68L830.68 422.35C829.59 406.99 826.16 391.59 818.15 380.6C795.31 349.27 785.15 328.71 787.8 312.39C787.8 312.39 762.67 353.18 713.72 356.45C664.77 359.72 623.65 394.31 619.72 457.62L635.38 479.16H789.85L789.79 479.49H1036.79L1052.51 455.96C1048.58 386.84 1007.51 349.07 958.51 345.51Z" fill="#296473"/>
<path opacity="0.05" d="M958.51 345.51C909.51 341.95 878.51 303.91 878.51 303.91C881.12 321.73 876.88 337.68 854.03 371.91C845.94 384.05 842.51 401.2 841.51 418.24L832.51 423.68L830.68 422.35C829.59 406.99 826.16 391.59 818.15 380.6C795.31 349.27 785.15 328.71 787.8 312.39C787.8 312.39 762.67 353.18 713.72 356.45C664.77 359.72 623.65 394.31 619.72 457.62L635.38 479.16H789.85L789.79 479.49H1036.79L1052.51 455.96C1048.58 386.84 1007.51 349.07 958.51 345.51Z" fill="black"/>
<path opacity="0.1" d="M888.88 175.55C884.88 185.45 877.78 193.81 870.02 201.15C859.3 211.3 845.82 220.24 831.08 219.55C839.116 212.064 844.933 202.507 847.89 191.93C838.59 197.35 831.56 205.93 822.68 212.04C813.8 218.15 801.25 221.3 792.57 214.92C808.336 206.994 821.432 194.621 830.24 179.33C809.16 184.8 798.34 208.54 779.35 219.2C770.45 224.2 760.04 226.08 749.84 225.86C742.59 225.71 734.51 224.02 730.47 218C728.11 214.5 727.56 210.1 727.47 205.87C727.03 186.69 734.84 167.87 746.87 152.94C758.9 138.01 774.87 126.66 791.95 117.85C798.03 114.71 804.37 111.85 811.14 110.85C819.56 109.63 828.14 111.42 836.4 113.32C847.14 115.78 857.94 118.48 867.83 123.32C888.94 133.77 898.16 152.71 888.88 175.55Z" fill="black"/>
<path d="M888.88 174.24C884.88 184.14 877.78 192.5 870.02 199.84C859.3 209.99 845.82 218.93 831.08 218.24C839.116 210.754 844.933 201.197 847.89 190.62C838.59 196.04 831.56 204.62 822.68 210.73C813.8 216.84 801.25 219.99 792.57 213.61C808.336 205.684 821.432 193.31 830.24 178.02C809.16 183.49 798.34 207.23 779.35 217.89C770.45 222.89 760.04 224.77 749.84 224.55C742.59 224.4 734.51 222.71 730.47 216.69C728.11 213.19 727.56 208.79 727.47 204.56C727.03 185.38 734.84 166.56 746.87 151.63C758.9 136.7 774.87 125.35 791.95 116.54C798.03 113.4 804.37 110.54 811.14 109.54C819.56 108.32 828.14 110.11 836.4 112.01C847.14 114.47 857.94 117.17 867.83 122.01C888.94 132.44 898.16 151.4 888.88 174.24Z" fill="#F7D6C8"/>
<path d="M254.32 296.14C318.843 296.14 371.15 243.833 371.15 179.31C371.15 114.787 318.843 62.48 254.32 62.48C189.797 62.48 137.49 114.787 137.49 179.31C137.49 243.833 189.797 296.14 254.32 296.14Z" fill="#C3705A"/>
<path d="M359.08 404.16C359.08 404.16 252.08 431.57 249.43 434.16C246.78 436.75 159.36 441.34 184.81 387.82C194.16 368.17 198.05 341.48 199.23 315.57C199.28 314.47 199.33 313.38 199.37 312.29C200.98 268.86 195.26 228.56 195.26 228.56C195.26 228.56 319.26 179.56 310.13 254.02C307.85 272.54 309.74 291.15 313.88 308.65C315.26 314.49 316.88 320.2 318.68 325.74C333.16 370.38 359.08 404.16 359.08 404.16Z" fill="#ECB4B6"/>
<path opacity="0.1" d="M313.87 308.67C297.424 320.864 277.647 327.746 257.184 328.396C236.721 329.047 216.547 323.435 199.36 312.31C200.97 268.88 195.25 228.58 195.25 228.58C195.25 228.58 319.25 179.58 310.12 254.04C307.85 272.57 309.74 291.18 313.87 308.67Z" fill="black"/>
<path d="M253.99 326.48C309.5 326.48 354.5 281.48 354.5 225.97C354.5 170.46 309.5 125.46 253.99 125.46C198.48 125.46 153.48 170.46 153.48 225.97C153.48 281.48 198.48 326.48 253.99 326.48Z" fill="#ECB4B6"/>
<path opacity="0.1" d="M359.08 404.16C359.08 404.16 252.08 431.57 249.43 434.16C246.78 436.75 159.36 441.34 184.81 387.82C194.16 368.17 198.05 341.48 199.23 315.57C200.23 329.11 207.97 361.9 208.96 372.81C209.023 373.448 209.15 374.078 209.34 374.69C210.79 379.54 215.96 385.13 222.19 390.43L222.56 390.74C230.309 397.24 239.926 401.107 250.018 401.781C260.11 402.455 270.155 399.902 278.7 394.49C287.594 388.887 296.131 382.735 304.26 376.07C315.9 366.46 319.53 353.51 319.98 342.07C320.166 336.578 319.73 331.083 318.68 325.69C333.16 370.38 359.08 404.16 359.08 404.16Z" fill="black"/>
<path d="M494.19 479.88H57.51C57.51 479.88 66.65 435.5 67.95 426.36C68.66 421.36 76.95 403.36 90.38 387.73C101.56 374.73 116.31 363.28 133.22 362.39C164.87 360.73 199.14 316.05 199.14 316.05C199.9 329.05 207.92 363 208.93 374.14C208.993 374.778 209.12 375.408 209.31 376.02C210.76 380.87 215.93 386.46 222.16 391.76L222.53 392.07C230.278 398.573 239.893 402.443 249.986 403.118C260.078 403.794 270.124 401.242 278.67 395.83C287.563 390.224 296.099 384.073 304.23 377.41C315.87 367.8 319.5 354.85 319.95 343.41C320.179 335.819 319.259 328.236 317.22 320.92C316.65 318.84 316.22 317.62 316.16 317.51L317.55 318.1C317.55 318.1 376.68 361.1 430.85 378.68C437.198 380.747 443.189 383.783 448.61 387.68C453.001 390.854 457.043 394.485 460.67 398.51C468.002 406.802 474.068 416.133 478.67 426.2C491.23 452.82 494.19 479.88 494.19 479.88Z" fill="#296473"/>
<path opacity="0.05" d="M494.19 479.88H57.51C57.51 479.88 66.65 435.5 67.95 426.36C68.66 421.36 76.95 403.36 90.38 387.73C101.56 374.73 116.31 363.28 133.22 362.39C164.87 360.73 199.14 316.05 199.14 316.05C199.9 329.05 207.92 363 208.93 374.14C208.993 374.778 209.12 375.408 209.31 376.02C210.76 380.87 215.93 386.46 222.16 391.76L222.53 392.07C230.278 398.573 239.893 402.443 249.986 403.118C260.078 403.794 270.124 401.242 278.67 395.83C287.563 390.224 296.099 384.073 304.23 377.41C315.87 367.8 319.5 354.85 319.95 343.41C320.179 335.819 319.259 328.236 317.22 320.92C316.65 318.84 316.22 317.62 316.16 317.51L317.55 318.1C317.55 318.1 376.68 361.1 430.85 378.68C437.198 380.747 443.189 383.783 448.61 387.68C453.001 390.854 457.043 394.485 460.67 398.51C468.002 406.802 474.068 416.133 478.67 426.2C491.23 452.82 494.19 479.88 494.19 479.88Z" fill="black"/>
<path opacity="0.1" d="M302.31 192.22C304.91 202.22 308.31 213.33 317.24 218.54C318.437 219.114 319.539 219.865 320.51 220.77C322.71 223.16 322.04 226.89 321.71 230.13C320.57 241.25 325.35 252.52 333.19 260.49C341.03 268.46 351.64 273.33 362.59 275.57C365.27 276.12 368.28 276.47 370.59 274.96C372.151 273.774 373.299 272.126 373.87 270.25C376.92 262.14 375.63 253.03 373.08 244.75C370.53 236.47 366.77 228.57 364.84 220.12C360.25 200.07 366.33 179.35 369.07 158.96C369.98 152.18 370.51 145.19 368.76 138.58C366.23 129 359.25 121.32 352.51 114.05C348.88 110.14 345.17 106.16 340.51 103.6C326.77 96.09 309.08 102.76 294.41 97.29C288.54 95.1 283.55 91.1 277.96 88.29C266.09 82.29 252.02 81.96 239.01 84.69C226 87.42 213.81 93.03 201.74 98.59L192.51 102.77C179.51 108.77 165.58 115.55 158.58 128.1C151.13 141.46 153.2 158.56 145.75 171.92C143.49 175.92 140.34 179.76 139.75 184.36C139.35 187.68 140.37 191 141.32 194.21C143.64 202.02 145.66 210.05 145.48 218.21C145.3 226.37 142.7 234.73 136.92 240.47C134.48 242.89 131.22 245.99 132.72 249.08C133.212 249.944 133.896 250.683 134.72 251.24C139.467 254.845 145.047 257.193 150.943 258.067C156.84 258.942 162.861 258.313 168.45 256.24C172.83 254.57 176.97 251.89 179.45 247.94C181.099 245.046 182.293 241.917 182.99 238.66C186.15 226.89 189.33 214.92 189.08 202.73C188.94 195.73 187.66 188.67 188.68 181.73C189.7 174.79 193.75 167.64 200.5 165.73C205.5 164.3 210.85 166.03 216.07 165.98C223.59 165.92 232.81 157.58 239.78 160.03C245.78 162.15 250.53 173.63 255.49 178.03C268.07 189.26 285.63 195.13 302.31 192.22Z" fill="black"/>
<path d="M302.31 190.91C304.91 200.91 308.31 212.02 317.24 217.23C318.419 217.792 319.508 218.527 320.47 219.41C322.67 221.8 322 225.53 321.67 228.77C320.53 239.89 325.31 251.16 333.15 259.13C340.99 267.1 351.6 271.97 362.55 274.21C365.23 274.76 368.24 275.11 370.55 273.6C372.111 272.414 373.259 270.766 373.83 268.89C376.88 260.78 375.59 251.67 373.04 243.39C370.49 235.11 366.73 227.21 364.8 218.76C360.21 198.71 366.29 177.99 369.03 157.6C369.94 150.82 370.47 143.83 368.72 137.22C366.19 127.64 359.21 119.96 352.47 112.69C348.84 108.78 345.13 104.8 340.47 102.24C326.73 94.7301 309.04 101.4 294.37 95.9301C288.5 93.7401 283.51 89.7401 277.92 86.9301C266.05 80.9301 251.98 80.6001 238.97 83.3301C225.96 86.0601 213.77 91.67 201.7 97.23L192.59 101.43C179.59 107.43 165.66 114.21 158.66 126.76C151.21 140.12 153.28 157.22 145.83 170.58C143.57 174.58 140.42 178.42 139.83 183.02C139.43 186.34 140.45 189.66 141.4 192.87C143.72 200.68 145.74 208.71 145.56 216.87C145.38 225.03 142.78 233.39 137 239.13C134.56 241.55 131.3 244.65 132.8 247.74C133.292 248.604 133.976 249.343 134.8 249.9C139.547 253.505 145.127 255.853 151.024 256.727C156.92 257.602 162.941 256.973 168.53 254.9C172.91 253.23 177.05 250.55 179.53 246.6C181.179 243.706 182.373 240.577 183.07 237.32C186.23 225.55 189.41 213.58 189.16 201.39C189.02 194.39 187.74 187.33 188.76 180.39C189.78 173.45 193.83 166.3 200.58 164.39C205.58 162.96 210.93 164.69 216.15 164.64C223.67 164.58 232.89 156.24 239.86 158.69C245.86 160.81 250.61 172.29 255.57 176.69C268.07 187.96 285.63 193.83 302.31 190.91Z" fill="#C3705A"/>
<path d="M637.13 233.6H408.03V430.06H637.13V233.6Z" fill="#463A3E"/>
<path opacity="0.05" d="M637.13 233.6H408.03V430.06H637.13V233.6Z" fill="black"/>
<path d="M604.28 516.22H408.28C410.81 501.95 418.21 486.31 432.63 469.45C444.016 456.196 453.328 441.294 460.25 425.25C462.11 420.963 463.777 416.667 465.25 412.36C469.581 399.572 472.528 386.357 474.04 372.94C474.04 372.56 474.13 372.18 474.17 371.8C475.181 362.53 475.588 353.203 475.39 343.88C475.39 343.21 475.39 342.56 475.39 341.88C474.69 319.003 470.906 296.325 464.14 274.46L463.89 273.68C461.76 266.97 460.2 263.2 460.2 263.2C460.2 263.2 464.09 261.09 470.51 257.98L471.05 257.72C494.66 246.38 550.55 222.72 575.19 239.58L575.59 239.85C584.21 245.99 588.85 257.26 586.67 276.03C586.67 276.1 586.67 276.18 586.67 276.25C586.67 276.6 586.59 276.94 586.56 277.25C585.24 290.187 584.616 303.186 584.69 316.19C584.69 316.84 584.69 317.49 584.69 318.19C584.69 321.237 584.723 324.323 584.79 327.45C584.79 327.87 584.79 328.29 584.79 328.71C584.99 338.81 585.44 349.24 586.07 359.82C586.94 374.49 588.18 389.43 589.61 404.09C590.22 410.36 590.88 416.59 591.61 422.72C591.69 423.44 591.77 424.18 591.85 424.89C592.69 432.36 593.56 439.68 594.45 446.78L594.51 447.24C597.91 475.44 601.67 500.06 604.28 516.22Z" fill="#C17174"/>
<path opacity="0.1" d="M586.59 276.07C586.59 276.14 586.59 276.22 586.59 276.29C585.181 289.576 584.513 302.93 584.59 316.29C584.59 316.94 584.59 317.59 584.59 318.29C571.429 333.565 553.768 344.278 534.14 348.892C514.512 353.505 493.928 351.782 475.34 343.97C475.34 343.3 475.34 342.65 475.34 341.97C474.635 318.819 470.766 295.872 463.84 273.77C461.71 267.06 460.15 263.29 460.15 263.29C460.15 263.29 464.04 261.18 470.46 258.07C493.84 246.77 550.89 222.37 575.51 239.89C584.12 246.03 588.76 257.3 586.59 276.07Z" fill="black"/>
<path d="M512.35 349.39C564.994 349.39 607.67 306.714 607.67 254.07C607.67 201.426 564.994 158.75 512.35 158.75C459.706 158.75 417.03 201.426 417.03 254.07C417.03 306.714 459.706 349.39 512.35 349.39Z" fill="#C17174"/>
<path opacity="0.1" d="M517.4 515.57H314.05C314.05 515.57 323.19 471.19 324.49 462.05C325.2 457.05 333.49 439.05 346.92 423.42C364.17 409.659 385.535 402.079 407.6 401.89C446.49 401.31 457.81 414.7 460.88 424.6C461.953 427.919 462.227 431.445 461.68 434.89L469.04 445.55L517.4 515.57Z" fill="black"/>
<path d="M516.75 516.22H313.4C313.4 516.22 322.54 471.84 323.84 462.7C324.55 457.7 332.84 439.7 346.27 424.07C363.52 410.309 384.885 402.729 406.95 402.54C445.84 401.96 457.16 415.35 460.23 425.25C461.302 428.569 461.576 432.095 461.03 435.54L468.39 446.2L516.75 516.22Z" fill="#296473"/>
<path opacity="0.1" d="M738.73 515.57H525.67C535.83 493.95 562.46 436.31 563.94 422.98C564.51 417.82 570.01 412.98 577.29 408.87C579.589 407.554 581.956 406.359 584.38 405.29L584.82 405.09C586.153 404.503 587.503 403.96 588.87 403.46C607.299 396.713 627.549 396.873 645.87 403.91C663.36 410.56 685.87 419.52 703.39 427.91L703.53 427.98C708.03 430.14 712.22 432.25 715.91 434.28C723.29 438.33 728.68 442.03 730.75 444.99C731.7 446.35 732.75 452.48 733.9 461.99C735.43 474.85 737.1 493.93 738.73 515.57Z" fill="black"/>
<path d="M739.38 516.22H526.32C536.48 494.6 563.11 436.96 564.59 423.63C565.16 418.47 570.66 413.63 577.94 409.52C580.239 408.204 582.606 407.009 585.03 405.94L585.47 405.74C586.803 405.153 588.153 404.61 589.52 404.11C607.95 397.363 628.199 397.523 646.52 404.56C664.01 411.21 686.52 420.17 704.04 428.56L704.18 428.63C708.68 430.79 712.87 432.9 716.56 434.93C723.94 438.98 729.33 442.68 731.4 445.64C732.35 447 733.4 453.13 734.55 462.64C736.09 475.5 737.75 494.59 739.38 516.22Z" fill="#296473"/>
<path opacity="0.1" d="M705.09 411.67C705.09 414.743 705.007 417.82 704.84 420.9C704.747 422.4 704.633 423.9 704.5 425.4C704.41 426.48 704.3 427.55 704.19 428.62L704.05 429.86C702.42 444.4 699.41 458.86 699.05 473.47C699.05 474.16 699.05 474.85 699.05 475.54C698.98 489.26 701.2 502.77 704.21 516.22H581.51C581.31 513.73 581.21 511.22 581.24 508.75C581.24 506.52 581.38 504.29 581.61 502.05C583.5 483.64 592.91 466.41 594.33 448.12L594.39 447.28C594.48 445.91 594.53 444.53 594.51 443.15C594.51 443.03 594.51 442.91 594.51 442.78C594.354 436.733 593.424 430.73 591.74 424.92C591.66 424.63 591.58 424.34 591.5 424.05C589.785 418.287 587.783 412.613 585.5 407.05L585.06 405.94C581.73 397.62 578.23 389.37 575.86 381.1C573.976 374.941 573.002 368.54 572.97 362.1C572.97 360.95 573.04 359.8 573.13 358.65C573.21 357.71 573.32 356.77 573.46 355.82C573.678 354.336 573.972 352.864 574.34 351.41C576.34 343.53 580.61 336.14 584.7 328.82C589.25 320.67 593.59 312.61 594.37 304.04C594.469 302.956 594.505 301.868 594.48 300.78C594.449 299.379 594.315 297.982 594.08 296.6C593.03 290.52 589.9 285.05 587.33 279.44C587.07 278.87 586.81 278.3 586.56 277.72C586.56 277.63 586.48 277.54 586.45 277.45C581.45 265.9 578.55 253.58 575.5 241.32C575.37 240.79 575.24 240.26 575.1 239.74C574.35 236.74 573.58 233.74 572.76 230.74C568.28 214.38 561.9 197.85 549.76 186.04C537.62 174.23 518.26 168.25 503.06 175.77C489.91 182.32 482.79 196.98 479.58 211.3C476.37 225.62 476.11 240.57 471.94 254.65C471.64 255.677 471.307 256.7 470.94 257.72C470.76 258.24 470.58 258.72 470.4 259.29C468.61 264.39 466.4 269.44 464.02 274.46L463.77 274.99C456.17 291.16 447.34 307.05 447.06 323.3V323.51C447.06 323.95 447.06 324.38 447.06 324.82C447.112 328.682 447.697 332.518 448.8 336.22C450.8 342.88 454.42 348.69 458.64 354.22C459.473 355.307 460.327 356.383 461.2 357.45C465.4 362.61 469.96 367.61 473.95 372.93L474.08 373.1C477.114 377.029 479.675 381.302 481.71 385.83C484.122 391.502 485.382 397.597 485.417 403.76C485.451 409.923 484.259 416.032 481.91 421.73C480.777 424.363 479.478 426.922 478.02 429.39C475.45 433.83 472.62 438.15 470.39 442.77C469.64 444.32 468.97 445.9 468.39 447.5C463.39 460.38 462.31 474.63 458.23 487.92C455.07 498.124 450.153 507.697 443.7 516.21H313.7C315.21 508.82 322.7 472.21 323.88 463.99C324.59 458.99 332.88 440.99 346.31 425.36C345.18 426.25 344.09 427.15 343.04 428.05C334.571 435.267 327.232 443.715 321.27 453.11C321.56 452.21 321.86 451.3 322.16 450.4C323.99 444.94 325.97 439.53 327.98 434.19C333.8 418.81 340.28 403.12 351.88 391.46C358.43 384.88 366.4 379.81 372.64 372.94C383.64 360.85 388.19 344.1 388.06 327.68C388.06 325.98 387.99 324.29 387.88 322.6C386.69 304.6 380.54 287.37 373.88 270.6C370.3 261.6 366.5 252.14 366.67 242.6C366.681 241.262 366.778 239.926 366.96 238.6C369.71 218.83 389.71 206.99 401.72 191.04C419.58 167.31 420.88 132.04 444.31 113.82C462.31 99.82 487.31 100.68 510.04 102.2C531.18 103.62 550.26 106.37 571.24 109.31C592.22 112.25 613.51 117.77 630.34 130.7C641.21 139.04 649.69 150.09 657.22 161.54C667.3 176.88 676.11 193.82 677.32 212.13C677.41 213.44 677.46 214.74 677.46 216.03C677.67 237.43 668.38 258.17 667.15 279.66C667.1 280.66 667.06 281.66 667.05 282.66C667.044 282.713 667.044 282.767 667.05 282.82C666.83 301.45 673.98 321.01 683.71 336.82C697.534 359.351 704.928 385.236 705.09 411.67V411.67Z" fill="black"/>
<path d="M705.09 411.67C705.09 414.31 704.99 416.96 704.84 419.59C704.747 421.09 704.633 422.59 704.5 424.09C704.367 425.59 704.217 427.077 704.05 428.55C702.42 443.09 699.41 457.55 699.05 472.16C699.05 473.28 699.05 474.41 699.05 475.53C699.12 489.24 701.44 502.76 704.5 516.21H581.62C581.39 513.72 581.25 511.21 581.23 508.74C581.204 506.069 581.327 503.398 581.6 500.74C583.49 482.33 592.9 465.1 594.32 446.81C594.42 445.47 594.49 444.13 594.5 442.81C594.5 442.5 594.5 442.18 594.5 441.87C594.372 435.397 593.366 428.972 591.51 422.77C589.795 417.007 587.793 411.333 585.51 405.77C582.05 397.08 578.34 388.45 575.86 379.77C574.112 374.015 573.14 368.052 572.97 362.04C572.942 360.452 572.995 358.863 573.13 357.28C573.21 356.34 573.32 355.4 573.46 354.45C573.678 352.966 573.972 351.494 574.34 350.04C576.34 342.16 580.61 334.77 584.7 327.45C589.26 319.29 593.62 311.21 594.39 302.63C594.45 301.98 594.48 301.32 594.5 300.63C594.547 298.791 594.413 296.952 594.1 295.14C593.05 289.06 589.92 283.59 587.35 277.98C587.09 277.41 586.83 276.84 586.58 276.26C581.51 264.64 578.58 252.26 575.52 239.86C574.64 236.32 573.74 232.78 572.79 229.27C568.31 212.91 561.93 196.38 549.79 184.57C537.65 172.76 518.32 166.9 503.13 174.46C489.98 181.01 482.86 195.67 479.65 209.99C476.44 224.31 476.18 239.26 472.01 253.34C471.55 254.89 471.01 256.44 470.5 257.98C468.64 263.25 466.32 268.48 463.88 273.68C456.07 290.27 446.98 306.59 447.17 323.3V323.51C447.222 327.372 447.807 331.208 448.91 334.91C450.91 341.57 454.53 347.38 458.75 352.91C459.583 353.997 460.437 355.073 461.31 356.14C465.56 361.36 470.17 366.41 474.19 371.79C477.224 375.719 479.785 379.992 481.82 384.52C484.232 390.192 485.492 396.287 485.527 402.45C485.561 408.613 484.369 414.722 482.02 420.42C480.887 423.053 479.588 425.612 478.13 428.08C475.56 432.52 472.73 436.84 470.5 441.46C469.75 443.01 469.08 444.59 468.5 446.19C463.5 459.07 462.42 473.32 458.34 486.61C455.013 497.339 449.75 507.367 442.81 516.2H313.4C313.4 516.2 322.54 471.82 323.84 462.68C324.49 458.11 331.5 442.68 343 428.05C344 426.71 345.14 425.37 346.27 424.05C336.866 431.482 328.716 440.375 322.13 450.39L321.24 451.79C323.32 445.4 325.61 439.09 327.96 432.87C333.78 417.49 340.26 401.8 351.86 390.14C358.41 383.56 366.38 378.49 372.62 371.62C383.3 359.85 387.92 343.62 388.04 327.62C388.04 325.48 388.04 323.35 387.86 321.23C386.67 303.23 380.52 286 373.86 269.23C370.45 260.61 366.86 251.63 366.65 242.49C366.603 240.728 366.7 238.966 366.94 237.22C369.7 217.56 389.7 205.77 401.71 189.77C419.57 166.04 420.87 130.77 444.3 112.55C462.3 98.5501 487.3 99.4101 510.03 100.93C531.17 102.35 550.25 105.1 571.23 108.04C592.21 110.98 613.53 116.49 630.34 129.38C641.21 137.77 649.69 148.77 657.22 160.23C667.3 175.57 676.11 192.51 677.32 210.82C677.44 212.56 677.487 214.297 677.46 216.03C677.29 236.96 668.35 257.3 667.15 278.36C667.07 279.78 667.03 281.19 667.05 282.62C667.044 282.673 667.044 282.727 667.05 282.78C667.17 301.02 674.21 320.04 683.71 335.45C697.776 358.378 705.179 384.771 705.09 411.67V411.67Z" fill="#463A3E"/>
<defs>
<linearGradient id="paint0_linear" x1="555.02" y1="519.85" x2="555.02" y2="58.85" gradientUnits="userSpaceOnUse">
<stop stop-color="#808080" stop-opacity="0.25"/>
<stop offset="0.54" stop-color="#808080" stop-opacity="0.12"/>
<stop offset="1" stop-color="#808080" stop-opacity="0.1"/>
</linearGradient>
</defs>
</svg>
